<?xml version="1.0" standalone="no"?>
<!DOCTYPE svg PUBLIC "-//W3C//DTD SVG 20010904//EN"
 "http://www.w3.org/TR/2001/REC-SVG-20010904/DTD/svg10.dtd">
<svg version="1.0" xmlns="http://www.w3.org/2000/svg"
 width="512.000000pt" height="512.000000pt" viewBox="0 0 512.000000 512.000000"
 preserveAspectRatio="xMidYMid meet">
<metadata>
Created by potrace 1.14, written by Peter Selinger 2001-2017
</metadata>
<g transform="translate(0.000000,512.000000) scale(0.100000,-0.100000)"
fill="#000000" stroke="none">
<path d="M2437 5038 c-5 -9 -31 -22 -58 -29 -57 -15 -65 -29 -14 -24 36 4 43
-3 24 -22 -9 -9 -7 -11 8 -7 12 3 24 1 27 -5 4 -6 1 -11 -6 -12 -49 -3 -327
-57 -390 -75 -137 -41 -260 -97 -576 -263 -131 -69 -326 -208 -403 -288 -46
-47 -49 -52 -19 -33 19 13 46 33 58 44 l24 21 19 -23 c17 -22 17 -26 4 -52
-19 -37 -19 -44 1 -36 15 6 15 4 3 -11 -8 -9 -29 -30 -46 -46 -38 -34 -39 -46
-13 -147 20 -78 27 -182 11 -165 -5 6 -11 19 -13 29 -2 15 -8 10 -23 -22 -28
-56 -51 -60 -97 -15 -49 48 -71 106 -66 177 1 30 0 52 -3 48 -56 -69 -82 -111
-60 -98 5 3 44 -43 87 -102 44 -59 87 -115 97 -125 16 -16 17 -21 4 -35 -82
-96 -151 -185 -214 -275 -71 -102 -95 -124 -153 -142 -25 -8 -25 -8 -6 14 l19
21 -44 0 c-43 0 -44 -1 -67 -52 -34 -76 -87 -256 -116 -393 -19 -94 -66 -393
-66 -426 0 -13 107 4 161 27 71 29 231 54 237 36 2 -6 13 -22 24 -34 11 -13
17 -17 13 -10 -9 17 17 15 41 -3 19 -14 19 -14 -3 -15 -27 0 -30 -21 -37 -264
-5 -190 -7 -197 -56 -211 l-25 -7 23 17 c12 9 22 23 22 31 0 23 -30 63 -43 58
-7 -2 -18 9 -25 26 -11 25 -17 28 -32 20 -34 -18 -35 -10 -2 11 37 24 62 66
62 102 0 25 -38 82 -48 73 -3 -3 3 -15 13 -26 10 -11 16 -22 14 -24 -2 -2 -17
13 -32 35 -26 36 -27 39 -9 39 26 0 58 29 67 59 6 21 4 20 -22 -9 -25 -27 -36
-33 -72 -33 -51 0 -61 12 -61 71 0 23 -2 42 -5 42 -3 0 -21 -6 -40 -14 -27
-12 -33 -19 -29 -38 l5 -23 -17 23 c-9 12 -23 22 -30 22 -18 0 -17 -10 1 -34
8 -11 13 -28 10 -37 -4 -13 -1 -16 12 -13 13 3 22 -6 33 -28 21 -46 15 -78
-16 -78 -30 0 -30 -3 2 -35 23 -24 26 -32 20 -73 -3 -25 -13 -53 -21 -62 -21
-23 -19 -33 5 -27 11 3 20 2 20 -2 0 -7 -243 -64 -333 -78 -50 -8 -53 -16 -18
-46 17 -14 39 -39 50 -57 l19 -32 13 23 c7 13 13 27 14 31 0 3 4 10 9 15 5 5
6 3 2 -4 -12 -22 6 -14 35 13 l28 27 5 -24 c3 -13 8 -62 11 -109 12 -174 71
-475 126 -650 29 -91 155 -349 186 -383 15 -15 37 -27 50 -27 14 0 23 -6 23
-15 0 -26 -35 -17 -68 18 -57 59 -54 58 -90 8 -18 -25 -38 -46 -45 -46 -6 0
-24 -30 -41 -67 l-29 -66 60 -74 c153 -185 267 -267 476 -338 78 -26 163 -55
189 -65 l47 -16 30 32 c37 38 38 45 9 68 -28 24 -16 41 31 41 33 0 37 3 36 22
-1 15 -13 29 -34 40 -18 9 -28 19 -23 22 5 3 26 -4 48 -14 45 -24 50 -24 35
-7 -6 8 -29 22 -51 32 -47 21 -49 30 -12 49 27 14 35 29 93 174 6 17 15 22 26
18 9 -4 24 1 35 11 18 16 19 16 9 -10 -6 -15 -7 -27 -2 -27 8 0 40 47 89 129
5 9 15 12 26 8 17 -7 18 -9 2 -25 -9 -10 -16 -30 -16 -43 0 -14 -4 -29 -10
-35 -6 -6 -2 -24 11 -52 22 -44 33 -51 43 -27 3 8 12 12 21 9 10 -4 15 0 15
11 0 11 5 15 15 11 30 -11 14 14 -30 45 -25 18 -45 34 -45 36 0 7 79 -37 85
-47 10 -16 25 -12 19 5 -5 13 1 17 23 14 3 0 10 6 15 15 5 8 15 13 23 10 8 -4
15 -2 15 4 0 5 -41 27 -92 47 -91 36 -200 96 -248 136 -17 14 -11 12 20 -6 55
-32 177 -91 208 -100 l22 -6 1 168 c0 171 7 335 15 342 2 2 4 -43 4 -100 0
-108 8 -133 39 -121 14 5 14 4 1 -12 -8 -11 -16 -14 -18 -7 -9 26 -22 8 -22
-31 0 -38 1 -40 14 -22 11 14 11 21 3 26 -8 5 -7 8 3 8 18 0 103 84 94 93 -3
3 3 3 14 1 16 -5 20 1 26 42 8 65 6 343 -4 374 -8 25 -10 23 -14 -17 -3 -27
-16 -43 -16 -21 0 26 -31 30 -55 8 -12 -12 -28 -20 -36 -18 -7 2 -14 -6 -16
-17 -10 -54 -15 -65 -29 -65 -8 0 -17 -7 -20 -15 -8 -19 -44 -20 -44 0 0 8
-16 22 -35 31 -20 9 -38 20 -41 25 -3 5 16 30 43 55 27 27 37 40 22 31 -31
-18 -45 -11 -26 12 35 41 48 159 20 169 -7 2 -13 -3 -13 -12 0 -24 -13 -19
-27 9 -10 23 -8 28 24 53 135 104 251 197 265 213 23 26 24 25 24 -23 -2 -157
8 -1025 11 -993 7 76 11 86 33 73 10 -7 21 -10 23 -8 9 11 14 90 6 90 -5 0 -9
5 -9 11 0 5 6 7 13 4 6 -4 5 -1 -3 7 -17 14 -20 74 -6 98 5 8 5 11 0 7 -5 -5
-14 7 -21 25 -11 32 -12 31 -10 -25 1 -31 5 -57 9 -57 4 0 8 -5 8 -11 0 -5 -5
-7 -11 -3 -8 4 -9 0 -4 -15 4 -12 2 -21 -4 -21 -11 0 -14 67 -16 393 -1 138 2
167 13 162 7 -3 29 -5 47 -5 30 0 33 -3 40 -38 10 -54 12 -161 5 -226 -6 -57
-6 -57 19 -54 24 3 26 7 29 61 2 32 -1 64 -7 71 -5 6 -13 35 -17 64 -7 52 -6
53 34 90 23 21 46 50 51 65 6 15 17 27 26 27 8 0 15 4 15 10 0 15 80 52 97 46
13 -6 13 -9 -1 -31 -16 -25 -16 -25 13 -25 19 0 34 7 40 19 10 18 45 34 54 24
3 -2 -1 -16 -9 -31 -18 -35 -18 -42 4 -42 12 0 23 13 33 37 11 29 25 42 74 65
33 16 68 34 77 41 14 9 25 6 61 -20 33 -23 43 -26 40 -14 -2 9 5 25 16 35 12
11 21 25 21 33 0 7 6 16 14 19 16 6 31 56 28 89 -1 12 4 6 13 -13 8 -18 14
-36 14 -40 -3 -20 3 -55 8 -44 6 15 33 16 33 0 0 -6 -7 -20 -17 -30 -9 -10
-11 -18 -6 -18 6 0 18 10 27 22 9 13 14 17 11 11 -9 -19 1 -16 45 12 39 25 40
26 40 85 0 33 4 60 10 60 19 0 10 27 -12 38 -20 10 -20 11 -4 9 16 -2 20 5 22
35 4 49 34 170 46 186 7 8 6 12 -4 12 -10 0 -13 13 -13 47 1 26 5 48 11 49 75
18 124 39 124 53 0 27 -30 142 -41 160 -9 13 -10 13 -4 -4 19 -60 33 -151 24
-160 -6 -6 -13 -5 -19 5 -7 12 -12 11 -31 -5 l-22 -20 13 24 c6 13 20 26 31
28 10 3 16 9 13 14 -3 6 -21 -4 -40 -21 -37 -32 -61 -39 -61 -16 0 26 -46 84
-61 78 -18 -6 -103 39 -99 52 6 19 24 16 51 -9 28 -26 48 -28 29 -3 -13 16
-23 68 -14 68 4 0 12 -12 19 -27 6 -16 10 -19 8 -8 -2 11 -7 27 -10 36 -5 11
7 23 44 43 27 15 50 29 50 32 0 7 -82 -36 -102 -53 -14 -13 -17 -12 -23 7 -5
17 -13 21 -31 17 -13 -2 -24 -1 -24 2 0 3 107 60 237 126 232 118 398 226 446
291 18 23 45 35 31 13 -9 -16 53 18 123 67 34 24 65 39 68 34 5 -8 -82 -69
-180 -125 -68 -39 -198 -135 -191 -142 3 -3 20 4 39 16 37 22 178 83 183 78 2
-1 -44 -27 -101 -57 -58 -29 -102 -56 -100 -59 3 -3 42 15 88 38 45 24 123 61
174 81 51 21 132 63 180 93 48 30 131 75 183 100 88 43 96 45 110 30 14 -15
13 -16 -2 -5 -13 11 -23 8 -60 -16 -136 -91 -380 -222 -458 -247 -30 -10 -76
-28 -102 -41 -26 -13 -72 -35 -103 -49 l-57 -25 6 25 c5 18 3 23 -7 19 -7 -2
-13 -17 -12 -32 0 -20 -5 -27 -17 -26 -10 1 -18 -2 -18 -7 0 -5 -57 -36 -126
-70 -134 -65 -167 -92 -43 -35 123 57 224 87 124 37 -30 -15 -45 -29 -45 -42
0 -10 -4 -19 -10 -19 -5 0 -10 5 -10 10 0 6 -20 0 -45 -12 -35 -19 -43 -27
-38 -43 8 -31 23 -42 23 -18 0 13 8 24 21 28 26 8 38 -3 19 -16 -12 -9 -12
-10 3 -5 10 3 21 6 23 6 3 0 2 5 -1 10 -3 6 3 10 14 10 12 0 21 -4 21 -10 0
-5 7 -7 15 -4 9 4 15 0 15 -9 0 -8 -27 -29 -61 -47 -39 -21 -59 -37 -55 -46 3
-7 11 -41 18 -74 12 -59 14 -61 38 -56 14 4 31 8 38 9 19 5 39 27 24 27 -7 0
-12 5 -12 12 0 6 9 3 20 -7 11 -10 20 -23 20 -30 0 -6 9 -21 21 -33 13 -14 19
-33 17 -50 -3 -26 -1 -27 57 -32 l60 -5 -60 -8 c-280 -37 -318 -44 -310 -57 3
-4 22 -3 42 3 21 5 79 11 128 13 86 3 89 3 58 -11 -54 -24 -41 -37 30 -29 34
3 64 6 67 6 52 0 29 -17 -42 -32 -35 -7 -56 -15 -47 -17 20 -5 32 -44 19 -57
-20 -20 -9 -26 41 -26 83 0 128 19 191 80 31 30 64 61 73 69 9 7 15 22 12 32
-3 10 0 22 7 27 6 5 87 17 179 27 141 16 170 21 178 37 8 16 6 18 -23 18 -18
0 -100 -9 -183 -20 -82 -11 -153 -20 -156 -20 -4 0 -9 29 -11 65 -3 36 -11 71
-17 79 -9 11 -3 15 35 21 35 5 58 17 93 49 35 33 59 45 104 55 66 14 59 18
152 -70 59 -55 60 -57 50 -90 -5 -19 -14 -41 -19 -49 -6 -9 -1 -7 12 4 31 27
27 8 -8 -38 -34 -45 -41 -71 -10 -38 25 27 36 28 43 3 3 -13 -10 -34 -40 -65
-24 -25 -39 -46 -33 -46 6 0 8 -5 5 -10 -3 -6 -17 -7 -30 -4 -18 4 -25 1 -30
-15 -3 -12 -10 -21 -15 -21 -9 0 -1 -71 9 -80 3 -3 12 -16 19 -29 13 -21 12
-23 -3 -17 -37 14 -63 17 -68 8 -4 -5 28 -24 69 -42 41 -18 72 -35 70 -38 -6
-5 -114 36 -134 51 -10 8 -16 7 -23 -4 -18 -29 -69 -193 -61 -200 4 -4 24 -12
45 -19 21 -7 37 -14 35 -16 -2 -2 -24 3 -48 10 l-45 14 -41 -88 -41 -88 78
-41 c43 -23 82 -47 85 -53 4 -6 -33 10 -82 35 -48 26 -89 45 -89 44 -5 -10
-97 -155 -129 -202 -50 -75 -139 -176 -191 -217 -22 -18 0 10 49 62 92 99 161
197 240 339 l46 84 -22 24 c-25 26 -14 32 14 6 28 -26 22 3 -12 52 -17 24 -33
59 -36 77 -3 18 -9 44 -14 58 -5 14 -11 39 -15 55 l-7 30 -14 -28 c-8 -15 -12
-32 -9 -37 3 -5 -1 -20 -10 -34 -10 -15 -14 -33 -10 -49 5 -20 2 -27 -15 -32
-17 -5 -20 -13 -18 -38 3 -28 0 -32 -19 -31 -30 1 -29 -10 3 -25 14 -6 24 -15
22 -19 -24 -45 -40 -90 -40 -113 -1 -16 -4 -29 -7 -29 -3 0 -25 17 -49 38 -39
34 -44 42 -49 94 -5 54 -5 57 16 51 12 -3 21 -1 21 6 0 6 -5 11 -11 11 -21 0
-39 29 -39 65 0 35 -20 85 -45 115 -7 8 -15 26 -17 39 -6 44 -26 34 -42 -20
-9 -28 -13 -55 -11 -60 13 -19 -15 -17 -29 3 -18 26 -22 7 -5 -24 10 -19 9
-20 -9 -16 -12 3 -23 1 -25 -5 -2 -6 -49 12 -110 43 -59 29 -110 50 -113 47
-16 -15 2 -722 22 -894 5 -40 6 -42 30 -33 34 13 30 5 -10 -18 -28 -17 -33
-24 -28 -47 3 -16 13 -30 24 -33 12 -3 17 -10 13 -19 -5 -15 8 -14 68 3 9 3
17 1 17 -5 0 -6 -6 -11 -14 -11 -8 0 -24 -9 -37 -20 -23 -18 -23 -19 -4 -20
11 0 31 -9 45 -20 l25 -20 -29 0 c-24 0 -27 -2 -16 -15 14 -17 35 -21 25 -5
-3 6 -2 10 4 10 5 0 11 -5 13 -10 2 -7 18 -5 46 4 60 21 45 6 -27 -29 -65 -31
-81 -49 -30 -35 16 5 36 7 43 4 7 -3 19 2 26 11 7 8 19 15 26 15 19 0 18 -35
-2 -51 -15 -12 -16 -11 -9 10 l7 24 -34 -26 c-19 -15 -64 -40 -101 -57 -37
-17 -67 -35 -67 -40 0 -6 9 -6 25 0 50 19 147 -49 126 -89 -4 -9 -11 -29 -15
-46 -4 -21 3 -12 24 28 17 32 28 63 24 69 -4 7 -3 8 4 4 7 -4 12 -1 12 9 0 12
-6 15 -20 10 -11 -3 -20 -2 -20 2 0 25 172 149 191 138 5 -4 -13 -18 -40 -32
-60 -31 -115 -79 -106 -93 4 -6 25 0 53 14 50 25 103 29 124 8 10 -10 14 -8
23 6 7 13 17 17 32 13 l22 -6 -26 -29 c-20 -23 -27 -26 -34 -15 -9 15 -13 6
-9 -26 1 -15 -6 -11 -34 20 l-35 40 -1 -36 c0 -46 -21 -66 -38 -38 -10 16 -10
24 -1 35 7 8 7 14 1 14 -5 0 -15 -14 -22 -30 -10 -23 -10 -33 -1 -44 14 -17 5
-41 -27 -69 -17 -16 -20 -16 -32 -2 -11 13 -15 13 -21 3 -13 -20 -11 -28 6
-22 17 7 18 -14 5 -56 l-8 -25 -1 28 c-2 58 -21 13 -21 -49 0 -41 4 -63 10
-59 6 3 10 12 10 20 0 8 11 26 24 40 24 26 25 26 35 6 17 -31 14 -40 -21 -61
-18 -11 -26 -20 -19 -20 12 0 12 -3 3 -12 -7 -7 -12 -18 -12 -25 0 -25 15 -12
32 27 9 22 21 40 27 40 14 0 14 -27 1 -35 -9 -5 -11 -55 -2 -55 2 0 17 11 34
25 28 24 31 24 59 9 28 -14 32 -34 5 -34 -6 0 -31 -20 -55 -44 -34 -35 -41
-47 -33 -61 6 -12 11 -14 16 -6 10 16 36 14 36 -3 0 -12 25 -15 123 -17 316
-8 486 9 534 53 14 13 28 18 42 13 13 -4 47 7 97 29 170 79 333 214 449 371
32 44 72 97 88 119 17 21 30 48 31 60 1 11 13 39 28 61 26 39 170 373 183 427
4 15 2 34 -3 44 -7 12 -4 34 10 73 41 118 118 472 118 542 0 38 31 89 55 89 7
0 23 8 36 19 20 16 21 21 10 35 -10 12 -11 22 -2 43 26 66 51 183 51 249 0 92
-22 165 -71 236 -37 53 -40 64 -46 145 -5 79 -8 90 -32 110 -14 12 -33 22 -40
23 -12 0 -12 3 -3 12 16 16 15 48 -1 67 -8 9 -26 81 -42 161 -15 80 -42 195
-61 255 l-34 110 33 28 c17 15 64 44 102 63 39 20 77 43 85 51 17 16 -127 -58
-179 -94 -46 -30 -53 -20 -11 16 l34 28 -24 14 c-14 7 -34 12 -45 12 -16 -1
-16 -1 -2 3 9 3 17 7 17 9 0 2 -19 46 -43 97 -44 94 -68 125 -87 113 -5 -3
-10 2 -10 13 0 11 -7 25 -15 32 -9 7 -14 19 -11 27 3 8 2 12 -3 9 -4 -3 -16 3
-26 14 -20 22 -7 28 14 8 7 -8 4 10 -8 41 -22 58 -41 86 -41 61 0 -8 -13 8
-29 35 -16 28 -40 61 -55 74 -14 13 -24 27 -21 30 2 4 -5 7 -15 7 -17 0 -18
-3 -6 -21 7 -11 16 -29 20 -40 6 -16 0 -13 -25 10 l-32 30 18 -28 c29 -45 10
-42 -26 5 -18 24 -36 47 -39 51 -4 5 17 -40 46 -100 68 -137 88 -193 69 -193
-7 0 -21 -3 -31 -7 -12 -4 -15 -3 -10 5 4 7 1 12 -7 12 -8 0 -18 7 -21 16 -8
21 -28 7 -21 -16 3 -10 1 -21 -5 -25 -6 -4 -9 -1 -8 6 2 7 -5 15 -15 17 -16 3
-17 1 -5 -20 7 -12 17 -26 23 -30 14 -10 2 -18 -20 -12 -12 3 -29 25 -40 50
-23 52 -53 86 -40 44 4 -13 21 -45 36 -71 33 -53 35 -59 15 -59 -7 0 -40 -20
-72 -46 -59 -45 -59 -45 -76 -24 -9 11 -18 26 -20 32 -6 16 -27 1 -38 -26 -8
-20 -8 -20 -18 6 -6 14 -16 29 -21 33 -6 3 -11 16 -11 28 0 14 -3 18 -10 11
-7 -7 2 -33 27 -79 20 -39 37 -71 39 -73 4 -6 88 40 137 75 46 32 67 38 52 13
-3 -5 -34 -28 -68 -50 -41 -27 -55 -40 -41 -41 11 -1 3 -6 -18 -13 l-37 -11
30 -53 c32 -57 31 -57 90 -10 38 29 49 34 49 20 0 -5 -21 -24 -47 -42 -27 -19
-51 -38 -54 -43 -6 -9 -34 28 -66 86 -9 17 -11 17 -27 -7 -12 -18 -14 -31 -7
-44 5 -9 9 -20 10 -25 0 -4 8 -18 18 -31 l18 -24 46 23 c25 13 67 40 92 59 31
24 47 31 47 22 0 -17 -158 -118 -223 -143 -23 -9 -54 -27 -69 -41 l-28 -26 0
27 c0 15 -4 27 -10 27 -5 0 -10 8 -10 18 0 9 -11 31 -24 47 l-25 30 -44 -43
-44 -43 -66 7 c-68 7 -82 19 -52 44 14 11 19 7 16 -12 0 -5 10 -8 24 -8 14 0
25 -5 25 -12 0 -6 9 -3 20 7 11 10 20 15 20 11 0 -3 19 13 43 36 23 24 51 48
62 55 18 10 18 12 4 25 -22 19 -90 118 -81 118 4 0 25 -20 45 -45 42 -50 73
-63 35 -15 -60 77 -68 89 -63 102 3 7 28 28 55 47 28 19 50 36 50 38 0 7 -80
-40 -102 -61 l-21 -20 -23 30 c-13 16 -24 33 -24 38 0 26 -330 347 -356 346
-5 -1 2 -10 15 -21 13 -11 21 -22 18 -25 -3 -4 -25 10 -48 30 -24 20 -47 36
-53 36 -12 0 -118 -146 -190 -262 -46 -75 -56 -87 -56 -70 0 7 171 272 212
329 24 33 37 32 73 -4 16 -16 18 -15 36 8 19 24 34 59 27 63 -1 1 -24 18 -50
39 -25 20 -51 37 -56 37 -6 0 -12 3 -14 8 -5 12 -84 70 -132 97 -34 19 -46 22
-46 11 0 -7 17 -21 38 -31 79 -35 83 -38 78 -58 -3 -14 -2 -17 6 -9 11 11 59
-18 131 -80 l32 -27 -22 -22 -22 -23 -60 42 c-32 23 -62 42 -65 42 -4 0 -19 8
-33 17 -15 10 -70 34 -122 54 -86 32 -97 34 -108 20 -7 -9 -12 -20 -12 -26 0
-5 4 -2 10 8 15 26 32 21 27 -8 -4 -20 -3 -23 8 -14 8 6 12 15 9 19 -3 5 11 3
30 -3 19 -5 37 -18 40 -27 6 -20 -29 -104 -45 -106 -23 -3 -24 -5 -11 -13 7
-5 10 -14 7 -20 -13 -20 -21 -12 -23 24 -2 25 1 35 11 35 16 0 62 68 53 77 -4
3 -12 -6 -18 -21 -17 -36 -33 -33 -25 4 10 53 -10 24 -33 -47 -28 -88 -39
-102 -80 -100 -31 2 -34 -1 -52 -48 -11 -27 -24 -59 -29 -70 -5 -11 -12 -31
-15 -44 -7 -22 -5 -23 29 -19 20 2 36 0 36 -5 0 -5 7 -7 15 -3 13 5 14 2 5
-15 -9 -16 -14 -18 -25 -9 -8 7 -19 10 -25 8 -7 -2 5 -11 24 -21 l36 -17 51
106 c28 58 49 107 47 108 -1 1 -14 7 -28 14 -25 12 -25 12 7 9 31 -2 34 1 72
79 21 45 46 84 56 88 17 6 80 -18 91 -35 7 -12 3 -11 -45 6 -22 8 -42 12 -42
10 -1 -3 -2 -8 -3 -12 -1 -5 -9 -21 -18 -38 -33 -62 -67 -157 -62 -173 5 -13
4 -14 -4 -4 -7 11 -10 9 -14 -6 -6 -21 21 -53 55 -65 9 -4 17 -14 17 -22 0
-12 -12 -7 -42 19 -23 20 -42 35 -44 33 -1 -1 -18 -29 -37 -62 l-35 -59 57
-36 c64 -40 191 -130 191 -135 0 -2 -45 -52 -101 -111 -55 -59 -121 -135 -147
-168 -25 -34 -70 -90 -99 -126 l-54 -65 23 -16 22 -17 -28 -41 -28 -40 21 -29
c16 -23 18 -32 8 -42 -12 -13 -10 -13 41 7 10 4 4 -8 -16 -31 -50 -58 -69
-121 -25 -85 120 100 237 205 291 263 130 137 296 306 301 306 23 -2 187 -243
170 -249 -7 -2 -26 -17 -43 -33 -30 -29 -74 -53 -83 -45 -4 5 62 57 72 57 4 0
13 7 22 16 14 14 14 18 -3 50 -10 19 -20 34 -22 34 -5 0 -102 -69 -139 -99
-26 -22 -32 -31 -20 -31 9 0 26 9 38 21 14 14 24 18 31 11 7 -7 2 -18 -13 -33
l-22 -22 21 5 c27 7 27 3 3 -23 l-19 -21 -7 21 c-5 18 -12 20 -53 15 -142 -17
-211 -44 -284 -113 -29 -27 -64 -59 -78 -70 -18 -14 -21 -20 -10 -21 9 0 21 5
27 11 8 8 13 8 17 0 4 -6 0 -11 -8 -11 -18 0 -20 -8 -8 -28 7 -10 14 -8 34 8
36 28 50 25 46 -7 -2 -20 -9 -29 -25 -31 -13 -2 -23 -8 -23 -14 0 -6 -15 -7
-39 -3 -33 5 -56 -1 -162 -50 -74 -33 -135 -68 -151 -86 -27 -28 -28 -29 -28
-7 -1 29 -46 82 -65 75 -7 -3 -16 1 -19 9 -6 15 -36 20 -36 6 0 -5 14 -21 31
-38 38 -36 122 -144 111 -144 -4 0 -42 38 -85 85 -59 64 -93 92 -144 117 -119
58 -264 48 -418 -29 -62 -32 -163 -113 -190 -153 -22 -32 -38 -40 -28 -13 4
11 3 14 -6 9 -6 -4 -9 -16 -6 -25 3 -10 -8 -47 -23 -82 -16 -35 -35 -85 -42
-111 -11 -43 -30 -66 -30 -37 0 6 -6 9 -12 6 -9 -3 -14 10 -15 41 -1 28 -9 52
-20 61 -16 15 -16 15 -4 -2 12 -15 11 -20 -3 -35 -18 -21 -21 -42 -6 -42 6 0
10 5 10 12 0 6 2 9 5 7 10 -11 -9 -48 -28 -55 -17 -5 -11 -8 28 -13 l50 -7
-42 -8 c-64 -12 -54 -30 13 -23 47 5 55 3 50 -9 -3 -9 -6 -18 -6 -20 0 -3 -4
-3 -9 1 -5 3 -12 1 -16 -5 -3 -5 -11 -10 -17 -10 -6 0 -5 7 3 17 12 15 12 16
-6 9 -11 -5 -28 -8 -39 -8 -16 1 -17 -4 -11 -45 4 -27 15 -53 26 -62 11 -9 21
-26 22 -38 1 -18 6 -22 22 -17 11 4 23 12 27 18 5 6 8 2 8 -11 0 -13 -8 -24
-21 -28 -21 -7 -20 -8 7 -26 26 -17 27 -19 9 -25 -31 -11 -54 -35 -48 -49 2
-8 10 -12 18 -9 13 5 28 -33 19 -48 -9 -14 -26 -9 -20 7 3 8 1 15 -4 15 -12 0
-13 -20 -1 -39 8 -12 13 -12 36 3 14 9 34 16 43 14 12 -2 3 -13 -30 -36 -27
-18 -48 -37 -48 -42 0 -15 9 -12 47 17 22 17 34 22 31 13 -2 -8 -20 -26 -40
-40 -19 -14 -65 -50 -102 -81 -37 -31 -79 -59 -94 -62 -15 -3 -43 -17 -62 -31
-19 -13 -59 -36 -87 -50 -29 -14 -53 -27 -53 -30 0 -3 17 -2 38 1 32 5 35 4
20 -8 -15 -12 -18 -36 -19 -174 l-1 -160 68 -52 c66 -50 70 -51 89 -35 19 17
19 17 3 -8 -10 -14 -60 -96 -113 -182 l-96 -158 -28 14 c-15 8 -58 44 -97 81
-38 36 -64 64 -57 61 6 -4 24 10 39 31 15 21 39 50 53 66 l25 27 26 -25 27
-26 27 22 c14 11 33 34 41 49 18 34 18 40 5 40 -5 0 -10 -7 -10 -15 0 -17 -59
-86 -60 -69 0 6 7 17 16 25 8 7 22 25 29 39 16 31 5 50 -29 50 -20 0 -20 -1 2
-18 21 -16 21 -19 7 -40 -22 -30 -37 -28 -23 3 17 37 -2 54 -36 31 -15 -9 -26
-22 -26 -29 0 -7 -16 -28 -35 -47 -19 -19 -35 -31 -35 -26 0 4 14 20 32 36 17
16 29 32 26 36 -4 3 -36 -23 -72 -58 -36 -35 -66 -61 -66 -58 0 3 31 36 68 73
56 55 68 73 64 93 -2 13 0 24 6 24 22 0 21 44 -2 75 -38 51 -98 156 -93 161 3
3 12 -5 20 -18 7 -12 29 -48 47 -78 19 -30 40 -63 48 -73 14 -16 16 -16 29 4
14 18 17 19 38 5 22 -14 23 -14 29 16 9 45 6 230 -4 253 -10 24 -10 25 -17
-50 -6 -75 -13 -84 -14 -19 l-1 49 -13 -35 c-17 -44 -21 -9 -4 38 6 17 9 36 7
41 -1 6 -47 -16 -100 -48 -54 -33 -98 -56 -98 -53 0 8 86 63 165 108 28 15 60
39 72 53 25 29 31 50 9 32 -27 -23 -145 -81 -163 -80 -16 0 -16 2 2 10 23 11
50 48 41 56 -3 3 -19 -5 -35 -17 -17 -12 -31 -18 -31 -13 0 8 43 37 92 62 16
8 26 16 25 18 -6 6 -79 -28 -149 -68 -36 -21 -69 -39 -72 -39 -3 0 -10 18 -16
40 -6 22 -22 52 -35 66 -14 15 -25 33 -25 40 0 7 -10 20 -22 30 -16 11 -17 15
-6 11 12 -4 18 -1 18 8 0 21 -13 19 -68 -9 -26 -13 -64 -29 -84 -35 -21 -7
-40 -16 -43 -21 -3 -5 1 -28 9 -52 17 -48 12 -88 -12 -88 -8 0 -53 -20 -98
-46 -46 -25 -84 -43 -84 -40 0 8 80 61 138 91 28 15 52 30 52 34 0 3 -7 28
-15 55 -8 28 -12 53 -8 57 5 4 67 34 138 67 l130 60 -1 58 c-2 61 7 48 19 -29
5 -34 3 -39 -24 -52 -16 -9 -29 -17 -29 -18 0 -2 11 -26 25 -54 13 -29 30 -72
36 -97 6 -25 14 -46 18 -46 3 0 34 17 69 39 34 21 80 46 102 56 36 16 55 45
30 45 -5 0 -10 -4 -10 -10 0 -5 -5 -10 -11 -10 -5 0 -7 5 -4 11 4 5 -6 36 -21
67 -52 108 -59 135 -39 156 49 49 -76 116 -170 90 -11 -3 -30 -23 -43 -45 -12
-21 -28 -39 -34 -39 -6 0 -4 8 5 18 9 10 34 49 54 87 l38 70 60 7 c185 24 406
69 431 89 6 5 21 2 37 -6 26 -13 27 -13 27 13 0 27 -2 28 -60 28 -51 1 -60 -2
-60 -17 0 -19 -17 -24 -120 -34 -36 -4 -123 -15 -194 -26 -70 -10 -134 -19
-140 -19 -7 0 -39 30 -71 66 -56 64 -58 67 -39 81 10 8 39 19 62 26 l44 12 -7
72 c-6 71 -6 73 18 82 33 13 72 62 113 143 19 37 38 68 42 68 4 0 40 -18 80
-40 40 -22 79 -40 86 -40 6 0 24 22 38 49 31 56 36 48 -69 121 l-62 43 -85 -5
c-53 -3 -91 -10 -102 -19 -21 -17 -64 -112 -64 -140 0 -13 -5 -19 -12 -17 -7
3 -44 13 -83 23 -38 10 -71 19 -73 20 -1 1 5 35 13 75 8 40 13 75 10 78 -10
10 -55 -30 -77 -68 -23 -40 -33 -45 -61 -34 -10 4 4 23 49 67 110 108 118 114
147 106 24 -6 26 -5 17 12 -6 10 -17 19 -25 19 -25 0 -17 25 39 134 88 170
190 304 309 407 56 49 75 59 105 59 29 0 46 9 76 37 l40 37 -27 48 c-40 70
-37 82 24 96 51 12 74 9 63 -9 -3 -5 -3 -23 1 -39 l7 -30 28 20 c48 34 170 91
259 121 47 16 86 29 87 29 1 0 10 -7 18 -16 15 -14 16 -14 16 5 0 41 32 31 43
-14 2 -11 5 17 6 62 l1 82 66 21 c74 22 98 25 89 9 -4 -5 -6 -77 -6 -159 1
-82 -1 -171 -5 -198 l-6 -50 -59 -6 c-44 -5 -59 -11 -59 -23 0 -11 6 -14 23
-9 12 3 45 9 74 12 l51 7 4 304 3 305 30 24 c70 58 64 92 65 -383 0 -235 1
-427 3 -428 1 -1 40 1 87 5 47 4 77 8 68 8 -16 2 -18 13 -18 87 0 61 3 85 13
85 8 0 12 -16 10 -50 0 -27 3 -50 8 -50 10 0 44 69 41 83 -3 10 15 9 84 -5 57
-12 58 -13 24 -19 l-35 -6 27 -11 c15 -6 45 -12 68 -14 48 -2 49 -8 15 -84
-14 -32 -24 -59 -22 -61 2 -2 23 40 46 92 37 84 41 101 35 141 -6 45 -6 45 20
38 15 -4 26 -2 26 4 0 15 -95 48 -160 56 -54 7 -56 8 -91 64 -20 31 -42 67
-48 80 -7 12 -21 22 -31 22 -24 0 -26 15 -4 24 21 8 54 -2 54 -16 0 -6 11 -8
26 -4 24 6 26 5 21 -16 -4 -13 -2 -29 2 -37 5 -8 11 22 16 78 4 50 11 91 16
91 4 0 6 -36 2 -80 -4 -57 -3 -80 6 -80 6 0 11 5 11 10 0 6 9 10 20 10 11 0
20 -4 20 -10 0 -17 58 -11 70 8 11 16 11 16 6 0 -4 -14 0 -18 18 -18 14 0 31
-3 39 -6 11 -4 20 8 33 43 10 26 32 75 50 108 17 33 44 97 59 142 14 45 35 93
46 107 10 13 19 28 19 33 0 4 -4 2 -8 -5 -7 -10 -15 -10 -36 -2 -17 6 -25 6
-21 0 8 -13 -1 -13 -87 6 -83 17 -257 27 -276 15 -18 -11 -63 -1 -56 11 4 6
-2 7 -16 3 -15 -5 -20 -4 -16 4 4 6 16 11 27 11 10 0 19 5 19 10 0 6 -10 8
-22 6 -13 -3 -59 -8 -103 -11 -89 -7 -197 -33 -292 -71 l-63 -26 -113 37
c-111 37 -148 55 -113 55 20 0 158 48 229 80 l47 21 33 -22 32 -23 -22 25
c-22 24 -22 25 -3 37 29 18 43 15 37 -8 -3 -13 0 -20 9 -20 8 0 14 9 14 20 0
22 15 27 26 8 5 -8 10 -5 15 9 5 13 21 24 41 28 18 4 38 12 45 17 14 12 25 -7
47 -86 21 -73 30 -69 11 4 -8 30 -15 65 -15 78 0 19 3 21 18 13 13 -7 23 -6
30 1 9 9 17 7 33 -7 20 -19 20 -19 14 7 -6 21 -3 26 10 24 10 -1 23 -13 31
-27 7 -13 13 -18 14 -11 0 6 7 12 15 12 8 0 15 8 15 18 1 15 2 15 13 1 15 -19
47 -21 40 -2 -6 16 9 17 25 1 9 -9 12 -8 12 5 0 9 7 17 16 17 14 0 15 -7 10
-42 -5 -33 -4 -39 6 -31 21 17 300 -27 306 -47 2 -6 17 16 32 49 l29 60 33
-11 c18 -6 35 -12 37 -14 2 -2 -16 -35 -39 -74 -23 -39 -40 -73 -37 -76 3 -3
24 26 47 65 37 64 60 88 60 61 0 -5 7 -10 15 -10 9 0 18 -7 21 -15 4 -10 13
-13 25 -10 11 4 19 2 19 -4 0 -6 12 -14 28 -17 15 -4 41 -17 59 -30 17 -13 36
-24 41 -24 6 0 13 -7 16 -16 3 -8 11 -12 16 -9 15 9 73 -53 66 -70 -3 -8 3
-16 12 -18 14 -4 13 -6 -5 -12 -33 -10 -29 -20 22 -56 33 -24 44 -37 39 -51
-3 -11 0 -18 9 -18 7 0 24 -11 37 -25 13 -14 28 -25 34 -25 6 0 36 -25 66 -56
30 -31 68 -61 85 -69 18 -7 49 -35 71 -61 21 -27 46 -54 55 -61 9 -7 31 -35
49 -63 19 -30 37 -47 44 -43 60 37 196 133 187 133 -6 0 -11 4 -11 9 0 5 -19
40 -43 79 -42 69 -142 179 -286 319 l-74 72 17 27 c10 14 21 23 25 18 19 -26
152 -146 143 -129 -6 12 -50 57 -99 101 -281 256 -513 382 -900 489 -35 10
-63 23 -63 30 0 7 -6 15 -14 18 -37 15 -231 29 -337 25 l-118 -4 -3 55 c-2 38
-6 50 -11 39z m478 -238 c37 -12 -138 -3 -200 11 -28 6 -9 7 65 4 58 -3 119
-9 135 -15z m330 -98 c-3 -3 -11 0 -18 7 -9 10 -8 11 6 5 10 -3 15 -9 12 -12z
m240 -42 c3 -5 2 -10 -4 -10 -5 0 -13 5 -16 10 -3 6 -2 10 4 10 5 0 13 -4 16
-10z m-20 -47 c19 -9 35 -20 35 -25 0 -5 -18 1 -40 12 -22 11 -40 23 -40 25 0
8 7 6 45 -12z m284 -136 c47 -44 67 -87 40 -87 -12 0 -141 96 -176 131 -23 22
-32 46 -13 34 14 -9 12 9 -2 24 -34 34 107 -60 151 -102z m-909 76 c0 -5 -4
-15 -10 -23 -11 -18 -25 -7 -17 15 6 15 27 21 27 8z m140 -33 c-16 -31 -23
-19 -9 16 6 16 13 24 16 17 2 -7 -1 -22 -7 -33z m75 20 c-3 -5 -10 -10 -16
-10 -5 0 -9 5 -9 10 0 6 7 10 16 10 8 0 12 -4 9 -10z m-1782 -135 c30 -28 36
-48 12 -39 -11 4 -13 2 -9 -9 3 -10 -2 -20 -15 -27 -26 -13 -41 -6 -41 20 0
10 -5 22 -10 25 -12 8 -3 -43 12 -61 5 -7 2 -16 -7 -24 -12 -10 -21 -6 -50 25
-19 21 -35 39 -35 41 0 7 94 74 104 74 6 0 24 -11 39 -25z m1232 -77 l60 0
-54 -10 c-57 -11 -116 -4 -127 14 -5 7 4 9 27 4 19 -4 61 -8 94 -8z m764 -162
c9 -11 6 -12 -14 -8 -14 2 -25 8 -25 13 0 14 26 11 39 -5z m67 3 c4 -7 0 -16
-9 -21 -9 -5 -19 -25 -23 -44 -4 -20 -20 -51 -36 -70 -24 -28 -27 -36 -18 -54
6 -11 8 -20 6 -20 -3 0 -10 9 -16 21 -10 17 -7 27 13 57 13 20 33 61 43 90 18
52 27 61 40 41z m39 -29 c3 -5 -3 -10 -14 -10 -12 0 -21 -6 -21 -13 0 -15 -29
-57 -30 -42 0 16 39 75 49 75 6 0 13 -4 16 -10z m-605 -44 c0 -17 -31 -26 -97
-26 -59 0 -70 15 -20 29 51 15 117 13 117 -3z m10 -103 c-12 -37 -24 -74 -26
-82 -2 -8 -7 -12 -9 -9 -3 3 7 41 22 86 15 45 29 80 31 78 2 -3 -6 -35 -18
-73z m51 21 c-7 -23 -10 -26 -16 -12 -4 10 -1 23 7 31 17 20 19 17 9 -19z
m174 16 c3 -5 -1 -10 -9 -10 -9 0 -16 5 -16 10 0 6 4 10 9 10 6 0 13 -4 16
-10z m45 0 c0 -5 -4 -10 -10 -10 -5 0 -10 5 -10 10 0 6 5 10 10 10 6 0 10 -4
10 -10z m-30 -40 c0 -5 -5 -10 -11 -10 -5 0 -7 5 -4 10 3 6 8 10 11 10 2 0 4
-4 4 -10z m177 -22 c-3 -8 -6 -5 -6 6 -1 11 2 17 5 13 3 -3 4 -12 1 -19z
m-161 -18 c15 -6 24 -13 21 -17 -9 -9 -97 18 -97 29 0 10 29 6 76 -12z m134
-10 c0 -5 -2 -10 -4 -10 -3 0 -8 5 -11 10 -3 6 -1 10 4 10 6 0 11 -4 11 -10z
m-743 -227 c-1 -43 -3 -10 -3 72 0 83 2 118 3 78 2 -40 2 -107 0 -150z m674
170 c-8 -15 -10 -15 -11 -2 0 17 10 32 18 25 2 -3 -1 -13 -7 -23z m-1766 -13
c-5 -16 -3 -19 12 -13 22 7 -3 -20 -187 -212 -74 -77 -177 -196 -229 -265 -52
-69 -96 -127 -98 -129 -1 -2 -5 -2 -7 0 -9 8 98 186 167 277 67 90 323 362
340 362 5 0 6 -9 2 -20z m365 -46 c0 -8 -4 -12 -10 -9 -5 3 -10 10 -10 16 0 5
5 9 10 9 6 0 10 -7 10 -16z m1387 -6 c-3 -8 -6 -5 -6 6 -1 11 2 17 5 13 3 -3
4 -12 1 -19z m-1417 -12 c0 -15 -18 -31 -26 -23 -7 7 7 37 17 37 5 0 9 -6 9
-14z m1452 -8 c-7 -7 -12 -8 -12 -2 0 6 3 14 7 17 3 4 9 5 12 2 2 -3 -1 -11
-7 -17z m343 4 c-3 -3 -11 0 -18 7 -9 10 -8 11 6 5 10 -3 15 -9 12 -12z m-875
-32 c-20 -13 -43 -13 -35 0 3 6 16 10 28 10 18 0 19 -2 7 -10z m1822 -18 c-13
-9 -35 -27 -49 -39 -14 -13 -30 -20 -36 -16 -5 3 14 21 44 39 56 36 80 45 41
16z m-602 -201 c-33 -50 -73 -117 -87 -148 -15 -32 -28 -52 -31 -45 -9 29 157
306 174 289 3 -3 -22 -46 -56 -96z m326 72 c-10 -10 -19 5 -10 18 6 11 8 11
12 0 2 -7 1 -15 -2 -18z m194 -78 c7 -8 8 -15 2 -15 -5 0 -15 7 -22 15 -7 8
-8 15 -2 15 5 0 15 -7 22 -15z m-402 -71 c-4 -3 -12 5 -18 18 -12 22 -12 22 6
6 10 -10 15 -20 12 -24z m231 -17 c10 -20 15 -37 10 -37 -5 0 -13 8 -16 18 -4
9 -13 23 -20 30 -7 7 -13 21 -13 30 0 22 15 6 39 -41z m-371 -32 c-9 -9 -30
14 -23 25 6 9 10 8 17 -4 6 -10 8 -19 6 -21z m53 -26 c-19 -16 -26 -17 -32 -7
-14 21 -10 26 19 30 38 5 41 -1 13 -23z m473 -24 c-4 -8 -11 -15 -16 -15 -6 0
-5 6 2 15 7 8 14 15 16 15 2 0 1 -7 -2 -15z m-89 -16 c-4 -5 -13 -9 -21 -9
-17 0 -17 -1 -4 -34 8 -22 6 -27 -20 -43 -34 -20 -38 -31 -14 -40 10 -4 22 1
30 12 12 17 14 16 24 -11 26 -66 78 -254 90 -319 7 -38 19 -83 27 -99 13 -26
18 -28 55 -23 68 9 28 -9 -82 -38 -58 -15 -116 -33 -130 -40 -33 -17 -140
-130 -140 -147 0 -17 37 -69 71 -98 26 -24 9 -17 -33 12 -32 22 -45 23 -23 2
14 -15 14 -18 0 -33 -19 -22 -21 -174 -2 -211 7 -13 32 -39 55 -57 46 -35 48
-42 4 -19 -48 25 -74 62 -84 118 -8 49 -10 213 -4 284 5 58 79 137 159 170 26
10 47 22 47 25 0 3 -9 23 -20 45 l-21 39 6 -32 c4 -18 4 -33 1 -33 -8 0 -27
76 -32 127 -2 25 -7 49 -10 55 -9 15 -14 79 -8 99 3 11 12 15 24 12 26 -7 27
20 1 46 -21 21 -18 33 5 24 8 -3 14 1 14 11 0 16 -22 13 -47 -6 -8 -7 -14 1
-18 29 -3 21 -11 49 -16 63 l-10 25 22 -25 c12 -15 19 -18 16 -9 -3 9 3 26 13
36 22 24 40 75 19 56 -7 -7 -26 -13 -41 -13 -15 0 -28 -4 -28 -9 0 -5 -9 -11
-19 -14 -37 -9 -1 35 39 49 3 1 15 5 28 9 12 4 22 12 22 17 0 6 7 8 15 5 8 -4
17 -2 20 4 4 5 11 7 16 3 5 -3 7 -10 4 -15z m-615 -108 c0 -11 -31 -37 -39
-33 -3 2 -7 -2 -10 -9 -2 -8 2 -10 13 -6 39 16 51 19 31 6 -11 -6 -30 -21 -42
-32 -23 -21 -33 -11 -11 11 9 9 9 12 1 12 -7 0 -15 -5 -18 -10 -7 -11 -25 -4
-25 10 0 5 8 11 19 15 10 3 29 14 41 25 25 21 40 26 40 11z m390 -96 c0 -2
-13 -11 -29 -20 l-30 -15 24 -54 c23 -51 23 -54 5 -59 -22 -6 -87 59 -86 86 1
20 116 82 116 62z m-3032 -41 c26 -8 28 -22 5 -69 -19 -40 -21 -40 -67 -21
-38 16 -62 42 -28 32 16 -5 21 -1 27 21 9 39 23 47 63 37z m3192 -8 c0 -7 -6
-19 -14 -25 -19 -16 -32 5 -16 24 16 19 30 19 30 1z m-560 -71 c0 -8 -4 -15
-9 -15 -13 0 -22 16 -14 24 11 11 23 6 23 -9z m-588 -17 c-7 -7 -12 -8 -12 -2
0 6 3 14 7 17 3 4 9 5 12 2 2 -3 -1 -11 -7 -17z m905 -14 c7 -10 13 -35 13
-56 0 -52 -29 -80 -78 -76 -34 3 -39 8 -64 57 -15 30 -33 58 -40 62 -7 4 -10
11 -7 14 11 10 38 -6 45 -27 6 -20 6 -20 28 1 28 27 46 26 82 -1 l29 -23 -16
25 c-10 14 -31 28 -53 33 -50 12 -45 26 6 17 23 -5 48 -16 55 -26z m-3012 4
c51 -25 54 -32 23 -49 -17 -9 -20 -9 -15 4 4 10 -7 20 -34 33 -22 9 -42 21
-45 26 -9 15 25 8 71 -14z m2655 18 c0 -7 -113 -57 -117 -52 -2 2 20 15 49 30
52 25 68 30 68 22z m10 -26 c-8 -5 -19 -10 -25 -10 -5 0 -3 5 5 10 8 5 20 10
25 10 6 0 3 -5 -5 -10z m-2680 -30 c0 -5 -4 -10 -10 -10 -5 0 -25 -14 -45 -31
-33 -29 -34 -32 -18 -45 21 -16 10 -18 -18 -4 -21 12 -23 60 -2 60 7 0 17 9
23 20 11 21 70 29 70 10z m3104 -15 c9 -14 13 -25 8 -25 -5 0 -14 11 -20 25
-6 14 -10 25 -8 25 2 0 11 -11 20 -25z m-248 3 c5 -7 2 -9 -9 -5 -9 3 -26 -2
-39 -13 -22 -18 -22 -20 -8 -47 20 -36 54 -38 58 -4 3 15 -3 30 -14 38 -14 10
-15 13 -3 13 35 0 53 -52 27 -78 -31 -31 -88 3 -88 52 0 41 58 74 76 44z
m-2846 -18 c0 -5 -4 -10 -10 -10 -5 0 -10 5 -10 10 0 6 5 10 10 10 6 0 10 -4
10 -10z m3070 -51 c0 -40 5 -55 25 -74 32 -32 20 -31 -56 5 -60 28 -62 30 -36
39 29 11 47 39 47 71 0 12 5 18 10 15 6 -3 10 -29 10 -56z m-244 14 c-7 -7
-26 7 -26 19 0 6 6 6 15 -2 9 -7 13 -15 11 -17z m279 -23 c3 -5 1 -10 -4 -10
-6 0 -11 5 -11 10 0 6 2 10 4 10 3 0 8 -4 11 -10z m-335 -20 c6 -11 8 -20 6
-20 -3 0 -10 9 -16 20 -6 11 -8 20 -6 20 3 0 10 -9 16 -20z m970 13 c0 -5 -14
-16 -30 -25 -38 -21 -40 -9 -2 14 33 20 32 20 32 11z m-80 -43 c0 -5 -8 -10
-17 -10 -15 0 -16 2 -3 10 19 12 20 12 20 0z m97 -99 c5 -49 3 -62 -6 -57 -6
4 -9 16 -6 26 3 10 3 30 -1 44 -5 22 -9 24 -20 15 -8 -7 -17 -9 -20 -6 -3 3 4
10 15 17 27 14 27 40 1 40 -11 0 -20 5 -20 11 0 5 4 8 9 4 5 -3 13 0 17 7 11
17 24 -26 31 -101z m-1283 84 c-4 -8 -13 -15 -21 -15 -13 0 -13 3 -3 15 7 8
16 15 21 15 5 0 6 -7 3 -15z m1216 -81 c0 -8 -4 -12 -10 -9 -5 3 -10 10 -10
16 0 5 5 9 10 9 6 0 10 -7 10 -16z m-1343 0 c-3 -3 -12 -4 -19 -1 -8 3 -5 6 6
6 11 1 17 -2 13 -5z m1096 -1 c-7 -2 -19 -2 -25 0 -7 3 -2 5 12 5 14 0 19 -2
13 -5z m-1143 -24 c0 -5 -10 -9 -21 -9 -18 0 -19 2 -9 15 12 15 30 12 30 -6z
m1020 1 c0 -5 -8 -10 -17 -10 -15 0 -16 2 -3 10 19 12 20 12 20 0z m-2055 -9
c-46 -42 -137 -111 -133 -100 4 13 123 109 136 109 3 0 2 -4 -3 -9z m200 1
c-6 -5 -23 -18 -39 -30 -34 -26 -32 -27 24 -7 55 19 107 19 117 0 8 -14 14
-14 58 0 46 14 51 14 65 -3 8 -10 22 -16 30 -15 21 4 110 -54 116 -75 3 -9 10
-26 17 -37 6 -11 16 -42 23 -70 7 -27 13 -42 13 -32 1 22 17 22 25 1 11 -28
19 -170 10 -161 -5 5 -14 38 -20 75 l-12 67 -1 -83 c-1 -83 -35 -269 -52 -286
-14 -15 -11 2 12 90 25 97 28 238 5 304 l-15 45 5 -55 c4 -37 1 -61 -8 -73
-12 -16 -15 -16 -50 3 -21 11 -40 20 -43 20 -3 0 -5 -15 -5 -32 0 -18 -5 -40
-10 -48 -7 -11 -10 -4 -10 27 0 45 -8 73 -20 73 -4 0 -6 -24 -4 -52 3 -51 3
-52 -7 -18 -29 94 -44 123 -90 172 -48 50 -49 51 -25 13 21 -33 56 -116 56
-131 0 -13 -19 0 -28 19 -10 20 -11 18 -11 -18 -1 -49 -21 -86 -21 -40 -1 51
-13 59 -42 28 -14 -16 -33 -44 -41 -64 -15 -38 -63 -79 -92 -79 -21 0 -68 25
-84 44 -8 9 -18 16 -24 16 -5 0 4 -13 20 -29 30 -28 30 -28 6 -28 -35 0 -65
-31 -52 -54 9 -17 6 -18 -22 -12 -25 5 -31 3 -27 -8 8 -24 68 -24 85 0 18 26
33 27 33 1 0 -22 46 -50 83 -50 54 0 130 84 156 173 l9 32 1 -38 c1 -51 -19
-95 -65 -141 -35 -34 -36 -37 -14 -31 37 11 49 23 78 79 22 43 27 47 30 28 11
-74 -172 -224 -210 -171 -8 11 -9 10 -4 -3 3 -10 0 -19 -7 -19 -7 -1 6 -5 28
-8 24 -4 50 -2 65 5 14 7 52 19 84 27 l58 16 -19 -21 c-54 -61 -173 -83 -281
-52 -61 18 -53 21 -98 -40 -23 -33 -26 -11 -3 28 16 27 17 35 6 30 -10 -4 -29
13 -58 53 -23 32 -43 59 -44 61 -1 1 -15 -2 -30 -8 -42 -16 -42 -3 0 17 37 18
37 18 32 68 -3 27 1 89 8 137 14 96 45 158 108 213 18 17 37 37 43 46 10 18
161 119 177 119 7 0 7 -3 2 -8z m-1495 -12 c0 -5 -2 -10 -4 -10 -3 0 -8 5 -11
10 -3 6 -1 10 4 10 6 0 11 -4 11 -10z m86 0 l24 0 -26 -39 c-31 -48 -60 -51
-58 -7 3 56 4 58 20 52 9 -3 27 -6 40 -6z m2304 0 c0 -5 -5 -10 -11 -10 -5 0
-7 5 -4 10 3 6 8 10 11 10 2 0 4 -4 4 -10z m912 -12 c-7 -7 -12 -8 -12 -2 0 6
3 14 7 17 3 4 9 5 12 2 2 -3 -1 -11 -7 -17z m-832 7 c0 -5 -75 -45 -85 -45
-29 0 45 47 78 49 4 1 7 -1 7 -4z m-110 -30 c0 -16 -6 -25 -15 -25 -8 0 -15 2
-15 4 0 2 -3 11 -6 19 -3 10 2 17 13 20 10 3 19 5 21 6 1 0 2 -10 2 -24z
m1335 -23 c-3 -3 -5 -1 -5 5 0 6 -10 14 -22 17 -22 7 -22 7 -3 15 15 6 22 3
28 -12 4 -11 5 -22 2 -25z m-105 28 c0 -5 -5 -12 -10 -15 -6 -4 -8 -10 -5 -15
10 -16 -57 -38 -78 -26 -13 8 -20 7 -28 -4 -8 -11 -9 -9 -3 10 9 35 14 38 28
17 16 -21 36 -22 36 -1 0 10 -6 14 -15 10 -8 -3 -19 2 -24 12 -8 14 -13 15
-29 5 -11 -6 -23 -9 -26 -6 -17 18 1 23 74 22 44 -1 80 -5 80 -9z m-250 -70
c8 0 22 7 32 17 27 24 22 0 -6 -26 l-24 -23 -41 41 c-23 23 -41 46 -41 52 0 6
15 -6 34 -25 18 -20 39 -36 46 -36z m-23 38 c-3 -7 -5 -2 -5 12 0 14 2 19 5
13 2 -7 2 -19 0 -25z m43 7 c-7 -8 -17 -12 -23 -8 -6 4 -3 11 8 19 23 17 32
10 15 -11z m290 -15 c0 -11 6 -19 12 -17 7 1 14 -9 16 -22 2 -13 0 -21 -6 -17
-6 3 -16 -9 -23 -27 l-12 -32 -7 55 c-4 30 -5 61 -2 68 7 19 22 14 22 -8z
m-395 0 c3 -5 -2 -10 -12 -10 -11 0 -25 -6 -33 -12 -8 -7 -6 -3 4 10 21 24 32
27 41 12z m-1308 -45 c6 -25 6 -45 2 -45 -5 0 -9 3 -9 8 0 4 -4 24 -9 45 -5
20 -6 37 -2 37 4 0 12 -20 18 -45z m-1969 18 c12 -3 22 -10 22 -15 0 -6 -8 -7
-17 -3 -10 4 -28 10 -40 12 -13 3 -23 10 -23 15 0 6 8 7 18 3 9 -4 27 -10 40
-12z m3522 -13 c0 -5 -10 -15 -22 -21 -23 -12 -23 -12 -4 10 21 23 26 26 26
11z m70 0 c0 -5 -4 -10 -10 -10 -5 0 -10 5 -10 10 0 6 5 10 10 10 6 0 10 -4
10 -10z m-1040 -10 c0 -5 -12 -10 -27 -10 -22 0 -25 2 -13 10 20 13 40 13 40
0z m1090 0 c0 -5 -4 -10 -10 -10 -5 0 -10 5 -10 10 0 6 5 10 10 10 6 0 10 -4
10 -10z m-190 -124 c-60 -68 -126 -133 -145 -144 -22 -14 -37 -32 -44 -54 l-9
-33 -1 33 c-1 20 6 38 18 48 27 22 124 120 203 203 112 119 96 79 -22 -53z
m-3455 104 c8 -13 -5 -13 -25 0 -13 8 -13 10 2 10 9 0 20 -4 23 -10z m3595 -9
c0 -12 -28 -22 -34 -12 -3 5 -3 11 1 15 9 9 33 7 33 -3z m-1305 -21 c-11 -5
-27 -9 -35 -9 -9 0 -8 4 5 9 11 5 27 9 35 9 9 0 8 -4 -5 -9z m1265 -4 c0 -3
-4 -8 -10 -11 -5 -3 -10 -1 -10 4 0 6 5 11 10 11 6 0 10 -2 10 -4z m85 -6 c3
-5 -1 -10 -9 -10 -8 0 -18 5 -21 10 -3 6 1 10 9 10 8 0 18 -4 21 -10z m-55
-20 c0 -5 -4 -10 -10 -10 -5 0 -10 5 -10 10 0 6 5 10 10 10 6 0 10 -4 10 -10z
m110 -5 c19 -23 8 -26 -20 -5 -19 15 -21 20 -9 20 9 0 22 -7 29 -15z m-2642
-7 c-2 -7 18 -20 45 -29 26 -8 44 -18 41 -22 -4 -3 -14 -2 -23 2 -9 5 -32 11
-51 13 -33 3 -34 2 -50 -49 -17 -57 -36 -86 -24 -38 13 56 45 135 55 135 5 0
8 -6 7 -12z m1309 6 c-3 -3 -12 -4 -19 -1 -8 3 -5 6 6 6 11 1 17 -2 13 -5z
m1563 -15 c-7 -11 -14 -19 -16 -16 -7 7 7 37 17 37 6 0 5 -9 -1 -21z m-330
-32 c0 -5 -4 -5 -10 -2 -5 3 -10 14 -10 23 0 15 2 15 10 2 5 -8 10 -19 10 -23z
m-341 -1 c10 -12 8 -13 -8 -9 -12 3 -21 9 -21 14 0 14 16 11 29 -5z m401 -26
c-8 -5 -24 -9 -35 -9 -16 1 -16 2 5 9 35 11 48 11 30 0z m-2524 -64 c-4 -30
-14 -60 -22 -67 -11 -9 -14 -8 -14 6 0 24 32 126 38 120 2 -2 1 -29 -2 -59z
m-1006 34 c0 -5 -7 -10 -16 -10 -8 0 -12 5 -9 10 3 6 10 10 16 10 5 0 9 -4 9
-10z m-396 -44 c-3 -15 -8 -25 -11 -23 -2 3 -1 17 3 31 3 15 8 25 11 23 2 -3
1 -17 -3 -31z m309 16 c3 -4 -6 -21 -19 -37 -19 -24 -24 -26 -24 -12 0 37 30
71 43 49z m84 -9 c3 -10 11 -25 18 -33 9 -12 5 -21 -22 -48 -29 -30 -33 -31
-33 -14 0 12 -9 23 -20 27 -12 4 -20 15 -20 27 0 46 63 79 77 41z m1953 -3 c0
-5 -5 -10 -11 -10 -5 0 -7 5 -4 10 3 6 8 10 11 10 2 0 4 -4 4 -10z m623 -17
c-7 -2 -19 -2 -25 0 -7 3 -2 5 12 5 14 0 19 -2 13 -5z m-60 -10 c-7 -2 -21 -2
-30 0 -10 3 -4 5 12 5 17 0 24 -2 18 -5z m-2831 -20 c10 -9 18 -23 18 -32 -1
-12 -3 -11 -12 4 -6 11 -18 26 -26 33 -9 6 -12 12 -7 12 5 0 17 -7 27 -17z
m2761 10 c-7 -2 -19 -2 -25 0 -7 3 -2 5 12 5 14 0 19 -2 13 -5z m-2363 -85 c0
-5 -6 -8 -12 -8 -7 0 -23 -3 -35 -6 -17 -5 -21 -2 -19 13 2 10 -2 21 -8 25 -7
5 -4 12 9 22 18 13 22 12 42 -12 12 -15 22 -30 23 -34z m3625 52 c3 -5 1 -10
-4 -10 -6 0 -11 5 -11 10 0 6 2 10 4 10 3 0 8 -4 11 -10z m-2888 -47 c-3 -10
-5 -2 -5 17 0 19 2 27 5 18 2 -10 2 -26 0 -35z m-47 12 c0 -8 -4 -17 -10 -20
-6 -4 -10 5 -10 20 0 15 4 24 10 20 6 -3 10 -12 10 -20z m2450 21 c0 -3 -4 -8
-10 -11 -5 -3 -10 -1 -10 4 0 6 5 11 10 11 6 0 10 -2 10 -4z m-3562 -18 c-2
-6 -10 -14 -16 -16 -7 -2 -10 2 -6 12 7 18 28 22 22 4z m28 -36 c-17 -16 -18
-16 -5 5 7 12 15 20 18 17 3 -2 -3 -12 -13 -22z m1955 -5 c-8 -8 -11 -7 -11 4
0 20 13 34 18 19 3 -7 -1 -17 -7 -23z m2054 28 c-8 -4 -310 -46 -425 -61 l-35
-4 30 14 c17 7 75 19 130 26 55 7 118 16 140 20 41 8 178 12 160 5z m-3712
-20 c-3 -9 -8 -14 -10 -11 -3 3 -2 9 2 15 9 16 15 13 8 -4z m884 -49 c36 -170
164 -306 350 -371 135 -48 296 -25 410 58 32 24 66 56 76 70 10 15 22 27 28
27 18 0 -40 -67 -94 -108 -29 -22 -81 -55 -117 -73 -62 -32 -69 -33 -169 -31
-90 2 -113 6 -179 34 -146 61 -294 236 -317 373 -4 22 -9 48 -12 58 -2 9 0 17
4 17 5 0 14 -24 20 -54z m2293 -63 c0 -6 6 -14 13 -16 8 -4 7 -6 -3 -6 -28 -2
-110 95 -110 129 0 15 99 -91 100 -107z m-226 75 c-4 -7 2 -8 17 -3 22 7 23 6
8 -10 -11 -11 -24 -15 -38 -10 -17 5 -19 10 -10 26 5 11 14 17 20 14 5 -4 6
-11 3 -17z m-3278 -54 c6 -19 8 -34 4 -34 -13 0 -32 29 -28 42 3 7 -2 18 -11
25 -14 10 -13 11 4 7 12 -3 25 -19 31 -40z m54 -14 c0 -5 -2 -10 -4 -10 -3 0
-8 5 -11 10 -3 6 -1 10 4 10 6 0 11 -4 11 -10z m2091 -63 c-13 -13 -15 1 -4
30 7 17 8 17 11 -1 2 -10 -1 -23 -7 -29z m1548 -7 c4 0 13 6 20 13 10 10 15 9
24 -4 7 -9 17 -16 22 -15 6 1 12 -18 16 -40 4 -34 2 -41 -10 -36 -9 3 -12 1
-7 -6 17 -28 -21 -9 -51 25 -18 20 -33 32 -33 27 -1 -20 -19 -141 -25 -164 -5
-17 -4 -21 3 -12 7 11 17 7 46 -19 21 -18 34 -35 29 -38 -11 -8 -13 -42 -2
-35 5 3 9 -1 9 -9 0 -27 -50 -6 -75 32 -22 32 -25 33 -25 13 0 -28 14 -43 59
-66 18 -10 31 -20 28 -22 -6 -6 -57 16 -79 34 -9 7 -18 10 -21 5 -3 -4 -26
-80 -51 -168 -26 -88 -53 -173 -60 -190 -7 -16 -11 -45 -9 -62 3 -21 1 -33 -6
-33 -7 0 -9 10 -6 28 3 15 -10 -4 -30 -41 -34 -65 -39 -107 -14 -107 6 0 7 9
4 21 -5 16 -4 19 5 14 9 -5 10 -2 6 12 -4 13 1 29 15 44 18 21 20 22 15 4 -6
-18 -5 -18 13 2 16 19 21 20 31 9 13 -17 -6 -56 -27 -56 -7 0 -13 -7 -13 -15
0 -21 20 -19 45 5 19 18 26 19 49 9 19 -9 23 -15 14 -21 -7 -4 -20 -5 -30 -2
-20 6 -35 -15 -18 -26 9 -5 9 -9 1 -14 -6 -4 -11 -2 -11 5 0 17 -18 0 -34 -32
-6 -12 -21 -26 -33 -30 -19 -7 -22 -5 -20 14 2 18 -3 22 -25 20 -25 -1 -26 0
-17 24 18 47 3 33 -24 -22 l-27 -55 30 0 c33 0 45 -14 42 -50 l-3 -25 13 24
c7 13 23 31 36 39 21 14 19 8 -15 -60 -21 -41 -44 -90 -52 -109 -22 -52 -62
-109 -73 -103 -5 3 -2 16 6 30 14 20 14 23 1 18 -8 -4 -15 -12 -15 -20 0 -8
-4 -14 -10 -14 -14 0 -12 -28 3 -33 6 -2 9 -8 5 -12 -8 -8 -32 13 -39 33 -3 9
-10 6 -22 -8 -16 -19 -16 -21 -1 -18 11 2 20 -6 25 -24 4 -16 3 -28 -2 -28 -5
0 -9 3 -9 8 0 4 -10 12 -22 17 -17 7 -22 18 -21 37 1 19 -2 25 -12 22 -8 -3
-22 -1 -32 5 -11 6 -13 11 -5 12 6 1 17 2 24 3 6 0 12 11 13 23 1 13 9 31 17
40 18 21 45 73 31 58 -23 -22 -123 -145 -123 -149 0 -3 6 -3 14 0 8 3 16 -3
19 -15 3 -14 1 -18 -9 -14 -8 3 -14 -1 -14 -10 0 -8 -9 -17 -21 -20 -20 -5
-20 -5 -4 20 9 13 14 28 10 31 -4 4 -11 -2 -17 -13 -19 -35 -206 -220 -215
-212 -4 5 33 46 83 92 95 88 227 248 308 372 144 224 279 584 332 888 24 139
38 194 42 168 2 -13 7 -23 11 -23z m-3674 0 c3 -5 1 -10 -4 -10 -6 0 -11 5
-11 10 0 6 2 10 4 10 3 0 8 -4 11 -10z m3389 -68 c3 -34 10 -70 15 -81 6 -11
11 -47 11 -80 0 -48 -3 -61 -15 -61 -11 0 -14 7 -10 23 3 14 -3 31 -15 47
l-21 25 5 -30 c3 -16 9 -46 15 -65 13 -43 14 -40 -3 -34 -25 10 -29 -29 -4
-49 23 -18 23 -18 -8 -3 l-31 15 -33 -69 c-19 -38 -35 -68 -38 -66 -2 2 8 26
21 53 35 69 97 344 97 432 0 38 10 -3 14 -57z m-3610 26 c17 -18 27 -48 15
-48 -5 0 -12 7 -15 15 -4 10 -13 13 -25 10 -21 -7 -25 5 -7 23 15 15 17 15 32
0z m56 -13 c0 -25 -16 -24 -18 1 -1 15 2 22 8 19 6 -3 10 -12 10 -20z m2386 0
c18 -14 17 -14 -11 -9 -26 4 -33 0 -53 -32 -25 -39 -41 -41 -22 -2 18 33 41
58 55 58 6 0 20 -7 31 -15z m-1846 -5 c0 -5 -10 -15 -22 -21 -23 -12 -23 -12
-4 10 21 23 26 26 26 11z m-350 -29 c0 -5 -9 -11 -20 -14 -20 -5 -26 3 -13 16
9 10 33 8 33 -2z m2190 6 c0 -1 -4 -16 -9 -34 -7 -23 -5 -37 5 -51 20 -29 4
-35 -18 -7 -17 22 -18 30 -8 60 6 19 16 35 21 35 5 0 9 -1 9 -3z m1480 -30 c0
-5 -4 -5 -10 -2 -5 3 -10 14 -10 23 0 15 2 15 10 2 5 -8 10 -19 10 -23z
m-1724 -33 c-27 -25 -58 -49 -70 -55 -12 -6 -7 0 9 13 17 13 46 37 65 55 19
18 37 32 40 32 3 0 -17 -20 -44 -45z m-307 -18 c6 -22 8 -42 6 -45 -10 -10
-23 15 -29 59 -8 54 7 44 23 -14z m-2049 24 c0 -5 -2 -10 -4 -10 -3 0 -8 5
-11 10 -3 6 -1 10 4 10 6 0 11 -4 11 -10z m1039 -59 c6 -19 11 -41 10 -50 -1
-21 -37 58 -38 84 -1 26 14 8 28 -34z m1401 34 c-7 -9 -15 -13 -17 -11 -7 7 7
26 19 26 6 0 6 -6 -2 -15z m-260 -28 c0 -18 -2 -19 -10 -7 -13 20 -13 43 0 35
6 -3 10 -16 10 -28z m-1265 -67 c35 -105 27 -126 -9 -26 -16 43 -35 80 -43 83
-10 4 -11 9 -2 19 17 21 25 10 54 -76z m1935 50 c0 -5 -2 -10 -4 -10 -3 0 -8
5 -11 10 -3 6 -1 10 4 10 6 0 11 -4 11 -10z m-2066 -72 c20 -29 21 -92 1 -108
-22 -18 -75 -14 -96 7 -31 32 -32 58 -3 92 32 38 75 42 98 9z m3050 -34 c3 -8
2 -12 -4 -9 -6 3 -10 10 -10 16 0 14 7 11 14 -7z m-2997 -26 c-3 -8 -6 -5 -6
6 -1 11 2 17 5 13 3 -3 4 -12 1 -19z m-7 -73 c-7 -9 -8 -15 0 -20 21 -13 8
-23 -70 -58 -49 -22 -80 -42 -80 -51 0 -23 43 -106 54 -106 6 0 38 18 71 41
56 37 126 78 115 66 -3 -3 -48 -34 -101 -70 l-96 -66 -38 80 c-21 44 -36 81
-34 83 2 1 36 15 74 31 39 16 76 33 83 38 23 17 5 19 -27 2 -43 -22 -39 -12 5
14 20 12 39 32 42 44 5 19 7 19 10 4 2 -10 -1 -24 -8 -32z m3230 41 c0 -2 -7
-6 -15 -10 -8 -3 -15 -1 -15 4 0 6 7 10 15 10 8 0 15 -2 15 -4z m-3400 -71 c0
-8 -2 -15 -4 -15 -2 0 -6 7 -10 15 -3 8 -1 15 4 15 6 0 10 -7 10 -15z m-30
-10 c18 -22 5 -32 -56 -46 -30 -7 -62 -19 -72 -26 -15 -12 -14 -13 6 -3 35 17
38 5 6 -26 -26 -26 -27 -27 -4 -13 34 21 117 49 124 41 11 -10 5 -56 -13 -107
-14 -40 -26 -55 -62 -77 -53 -32 -68 -35 -44 -8 17 18 17 20 1 20 -14 0 -12 6
11 38 l27 37 -33 -30 c-24 -21 -31 -24 -23 -10 6 11 38 43 71 70 33 28 57 51
52 53 -12 4 -111 -46 -111 -56 0 -5 -7 -17 -16 -28 -15 -19 -15 -18 -11 4 3
12 0 25 -6 30 -19 11 -38 52 -31 63 3 6 35 24 70 41 36 17 67 35 70 39 8 14
30 11 44 -6z m2074 -13 c2 -4 7 -25 11 -47 l8 -40 -27 24 c-25 24 -33 50 -19
64 9 9 21 9 27 -1z m446 -21 c28 -24 33 -32 23 -42 -7 -7 -13 -27 -13 -43 0
-33 -14 -64 -23 -50 -2 5 -8 36 -12 69 -4 33 -11 68 -16 78 -14 25 2 21 41
-12z m-2070 -16 c-7 -9 -32 -30 -54 -46 -39 -29 -39 -29 7 15 48 45 72 61 47
31z m2894 -109 c-9 -29 -13 -31 -26 -18 -9 9 -7 13 6 18 15 6 15 8 -5 22 -17
11 -18 16 -8 23 19 12 41 -19 33 -45z m-1234 -6 c0 -5 -4 -10 -10 -10 -5 0
-10 5 -10 10 0 6 5 10 10 10 6 0 10 -4 10 -10z m1198 -67 c-2 -27 -6 -33 -24
-33 -30 0 -39 16 -14 23 21 5 27 31 10 42 -5 3 -10 10 -10 16 0 5 9 4 20 -3
15 -9 20 -22 18 -45z m50 3 c-3 -16 3 -29 18 -42 27 -22 32 -39 7 -25 -39 23
-58 43 -45 48 6 3 12 13 12 24 0 10 3 19 6 19 4 0 4 -11 2 -24z m-3240 -31
c-3 -3 -9 2 -12 12 -6 14 -5 15 5 6 7 -7 10 -15 7 -18z m578 -32 c-6 -6 -76
38 -76 48 0 5 18 -3 40 -17 22 -15 39 -29 36 -31z m2644 1 c0 -3 -5 -14 -10
-24 -9 -16 -5 -21 25 -31 19 -7 31 -17 26 -22 -11 -11 -83 24 -76 37 3 6 8 19
11 29 6 16 24 25 24 11z m-3643 -21 c4 -11 -55 -33 -89 -33 -32 0 -19 18 25
33 47 16 59 16 64 0z m498 -72 c43 -70 60 -89 73 -84 15 6 15 5 3 -10 -13 -16
-18 -11 -63 55 -52 77 -81 128 -74 128 2 0 30 -40 61 -89z m600 59 c2 -25 -7
-25 -36 -1 l-24 20 23 -6 c14 -3 22 -1 22 8 0 19 14 1 15 -21z m-355 13 c0 -5
-35 -39 -78 -77 -73 -66 -66 -53 22 42 38 40 56 51 56 35z m2950 -19 c0 -14
-3 -14 -15 -4 -8 7 -15 14 -15 16 0 2 7 4 15 4 8 0 15 -7 15 -16z m-1021 -199
c62 -91 108 -165 104 -165 -9 1 -12 5 -120 160 -108 155 -117 170 -105 170 6
0 60 -74 121 -165z m-1896 105 c-3 -11 0 -27 7 -35 7 -9 10 -18 7 -21 -3 -3
-13 6 -22 20 -14 21 -15 29 -5 41 17 20 19 19 13 -5z m2854 -32 c-3 -8 -6 -5
-6 6 -1 11 2 17 5 13 3 -3 4 -12 1 -19z m-57 -53 c-6 -15 -13 -26 -15 -23 -3
2 1 19 8 37 6 17 13 28 15 23 1 -5 -2 -22 -8 -37z m-2312 -3 c2 -8 -3 -10 -14
-5 -12 4 -24 -2 -40 -22 -13 -16 -25 -27 -28 -24 -3 3 8 20 24 38 30 32 50 36
58 13z m1202 -26 c0 -2 -7 -6 -15 -10 -8 -3 -15 -1 -15 4 0 6 7 10 15 10 8 0
15 -2 15 -4z m1075 -61 c-14 -21 -25 -32 -25 -26 0 14 42 73 47 67 2 -2 -7
-21 -22 -41z m-2178 3 c-3 -8 -6 -5 -6 6 -1 11 2 17 5 13 3 -3 4 -12 1 -19z
m1430 -115 c-9 -10 -31 -27 -49 -37 -40 -23 -34 -16 18 24 45 34 54 37 31 13z
m-2508 -55 c-24 -10 -46 -23 -49 -27 -9 -14 -50 -23 -50 -12 0 6 11 13 25 17
14 3 25 10 25 14 0 11 73 39 83 33 5 -3 -11 -14 -34 -25z m2231 7 c14 -19 14
-19 -2 -6 -10 7 -18 18 -18 24 0 6 1 8 3 6 1 -2 9 -13 17 -24z m-1753 -17 c-3
-8 -6 -5 -6 6 -1 11 2 17 5 13 3 -3 4 -12 1 -19z m-267 -8 c-8 -5 -34 -10 -56
-10 -30 0 -48 -7 -65 -24 -19 -18 -40 -26 -92 -31 -73 -8 -93 6 -34 24 17 5
57 19 87 30 57 21 190 30 160 11z m129 -49 c-9 -13 -24 -21 -39 -20 -25 0 -25
0 -2 9 24 10 26 17 13 40 -16 24 0 33 21 12 17 -17 18 -22 7 -41z m169 -5
c-45 -59 -100 -116 -112 -116 -6 0 8 19 30 43 64 66 97 115 88 129 -6 10 -4
10 9 -1 16 -12 14 -17 -15 -55z m1877 34 c-3 -5 -11 -10 -16 -10 -6 0 -7 5 -4
10 3 6 11 10 16 10 6 0 7 -4 4 -10z m100 0 c3 -5 39 -10 78 -11 82 0 67 -13
-25 -21 -52 -4 -57 -3 -67 19 -10 22 1 33 14 13z m-2005 -25 c-7 -9 -15 -13
-18 -10 -3 2 1 11 8 20 7 9 15 13 18 10 3 -2 -1 -11 -8 -20z m2260 15 c0 -5
-7 -10 -16 -10 -8 0 -12 5 -9 10 3 6 10 10 16 10 5 0 9 -4 9 -10z m251 -42 c1
-7 3 -29 5 -48 l3 -35 -19 24 c-24 28 -27 71 -5 71 8 0 16 -6 16 -12z m-2877
-22 c-34 -25 -93 -41 -106 -28 -8 8 -3 13 18 17 16 4 45 13 64 20 41 15 52 11
24 -9z m2351 4 c3 -5 1 -10 -4 -10 -6 0 -11 5 -11 10 0 6 2 10 4 10 3 0 8 -4
11 -10z m-2578 -6 c-3 -3 -12 -4 -19 -1 -8 3 -5 6 6 6 11 1 17 -2 13 -5z
m2549 -30 c-4 -9 -9 -15 -11 -12 -3 3 -3 13 1 22 4 9 9 15 11 12 3 -3 3 -13
-1 -22z m-1823 -23 c-15 -22 -30 -35 -32 -30 -3 9 46 69 57 69 2 0 -9 -18 -25
-39z m-813 -10 c0 -6 -4 -13 -10 -16 -5 -3 -10 1 -10 9 0 9 5 16 10 16 6 0 10
-4 10 -9z m250 -68 c0 -20 -21 -26 -37 -10 -9 8 -17 32 -18 53 l-2 37 28 -34
c16 -19 29 -39 29 -46z m2537 71 c-3 -3 -12 -4 -19 -1 -8 3 -5 6 6 6 11 1 17
-2 13 -5z m-2067 -25 c-7 -11 -14 -19 -16 -16 -7 7 7 37 17 37 6 0 5 -9 -1
-21z m40 -9 c0 -5 -4 -10 -10 -10 -5 0 -10 5 -10 10 0 6 5 10 10 10 6 0 10 -4
10 -10z m-33 -52 c-9 -22 -23 -36 -49 -46 -29 -12 -38 -21 -38 -39 0 -36 -16
-19 -24 24 -3 21 -9 49 -12 63 -5 22 -4 23 8 9 7 -9 28 -20 45 -23 27 -6 34
-3 48 18 24 36 36 32 22 -6z m-356 4 c-5 -10 -18 -25 -27 -33 -10 -8 -25 -27
-35 -44 -19 -30 -19 -30 9 -52 22 -18 25 -25 16 -40 -12 -19 -26 -20 -102 -8
-24 3 -49 2 -55 -3 -14 -11 -97 -21 -97 -12 0 4 11 17 25 30 36 34 114 39 153
11 36 -25 42 -26 42 -5 0 8 -13 20 -30 25 -34 12 -35 15 -15 49 20 36 19 53
-4 45 -25 -8 -36 10 -13 21 29 13 96 31 120 33 19 1 21 -2 13 -17z m-176 -12
c4 -6 -7 -10 -27 -10 -19 0 -44 -8 -57 -17 -24 -16 -23 -8 2 25 11 14 73 16
82 2z m3560 -9 c-3 -6 -11 -8 -17 -5 -6 4 -5 9 3 15 16 10 23 4 14 -10z
m-3251 -12 c-8 -14 -24 -10 -24 6 0 9 6 12 15 9 8 -4 12 -10 9 -15z m-149 -53
c-10 -14 -24 -26 -33 -26 -11 0 -8 8 13 30 33 35 44 33 20 -4z m345 24 c0 -5
-5 -10 -11 -10 -5 0 -7 5 -4 10 3 6 8 10 11 10 2 0 4 -4 4 -10z m2149 -94
c-44 -40 -144 -105 -151 -98 -16 16 3 41 45 60 85 39 121 52 106 38z m-259
-41 c0 -7 -7 -19 -16 -26 -14 -11 -18 -10 -30 6 -13 17 -13 21 2 32 18 13 44
7 44 -12z m710 -25 c0 -5 -6 -10 -13 -10 -8 0 -22 -9 -31 -19 -17 -19 -17 -19
2 -14 12 3 28 14 38 24 9 10 22 19 28 19 24 0 -80 -90 -110 -96 -20 -4 -34
-13 -37 -25 -3 -10 -11 -19 -17 -19 -10 0 -10 3 -1 14 19 23 -3 26 -37 6 -45
-28 -43 -2 4 50 46 51 174 102 174 70z m76 -20 c0 -11 -4 -20 -8 -20 -10 0
-11 24 -1 33 9 9 9 10 9 -13z m-421 -9 c-9 -16 15 -24 30 -11 24 20 17 -5 -7
-27 -31 -27 -62 -43 -88 -43 -11 0 -23 -7 -26 -15 -4 -8 -12 -15 -18 -15 -13
0 -32 -31 -39 -65 -3 -11 -5 3 -6 31 -1 64 19 92 91 128 55 27 73 32 63 17z
m145 -171 c-12 -23 -49 -45 -58 -35 -8 7 44 55 59 55 6 0 6 -7 -1 -20z"/>
<path d="M3680 4511 c0 -6 4 -13 10 -16 6 -3 7 1 4 9 -7 18 -14 21 -14 7z"/>
<path d="M3742 4448 c5 -15 28 -23 28 -10 0 5 -7 13 -16 16 -10 4 -14 1 -12
-6z"/>
<path d="M1240 4406 c0 -2 8 -10 18 -17 15 -13 16 -12 3 4 -13 16 -21 21 -21
13z"/>
<path d="M4198 3183 c7 -3 16 -2 19 1 4 3 -2 6 -13 5 -11 0 -14 -3 -6 -6z"/>
<path d="M4200 3066 c0 -2 7 -9 15 -16 13 -11 14 -10 9 4 -5 14 -24 23 -24 12z"/>
<path d="M3835 2970 c-37 -40 10 -105 53 -74 27 18 28 46 5 66 -32 27 -40 28
-58 8z m45 -30 c0 -11 -7 -20 -15 -20 -15 0 -21 21 -8 33 12 13 23 7 23 -13z"/>
<path d="M2345 2640 c-11 -5 -32 -9 -46 -9 -15 -1 -33 -9 -40 -18 -12 -15 -12
-16 3 -10 45 16 137 29 169 23 57 -10 159 -77 186 -122 13 -21 26 -47 29 -56
9 -26 23 -22 17 5 -15 69 -73 130 -157 168 -51 22 -132 32 -161 19z"/>
<path d="M2202 2499 c-19 -30 -8 -34 12 -4 9 14 13 25 9 25 -5 0 -14 -9 -21
-21z"/>
<path d="M2250 2460 c-20 -6 -21 -8 -5 -8 11 0 31 4 45 8 20 6 21 8 5 8 -11 0
-31 -4 -45 -8z"/>
<path d="M2353 2435 c30 -21 37 -31 32 -48 -5 -17 -2 -15 14 8 25 36 15 50
-44 60 l-40 7 38 -27z"/>
<path d="M2253 2420 c-30 -13 -43 -25 -43 -40 0 -11 -4 -20 -10 -20 -5 0 -10
10 -10 22 0 12 -3 19 -6 15 -15 -14 9 -79 39 -107 58 -55 106 -49 134 17 17
43 12 70 -21 106 -30 32 -29 32 -83 7z m64 -26 c15 -23 15 -30 2 -67 -9 -28
-21 -43 -34 -45 -19 -3 -19 -2 -2 11 22 19 22 27 -3 27 -21 0 -28 24 -10 35 6
3 10 -1 10 -9 0 -20 16 -21 24 -1 14 37 -33 62 -62 33 -18 -18 -15 -65 6 -77
9 -6 13 -11 8 -11 -5 0 -17 7 -26 15 -25 23 -14 82 19 100 37 20 48 18 68 -11z"/>
<path d="M2196 2418 c3 -5 10 -6 15 -3 13 9 11 12 -6 12 -8 0 -12 -4 -9 -9z"/>
<path d="M2090 2306 c0 -2 7 -7 16 -10 8 -3 12 -2 9 4 -6 10 -25 14 -25 6z"/>
<path d="M2160 2249 c0 -5 5 -7 10 -4 6 3 10 8 10 11 0 2 -4 4 -10 4 -5 0 -10
-5 -10 -11z"/>
<path d="M2092 2140 c8 -14 23 -40 32 -59 12 -23 21 -30 28 -23 7 7 23 4 52
-9 22 -10 50 -18 61 -18 14 0 11 4 -10 10 -69 23 -111 45 -130 68 -42 51 -48
57 -33 31z"/>
<path d="M1010 2230 c-13 -8 -12 -10 3 -10 9 0 17 5 17 10 0 12 -1 12 -20 0z"/>
<path d="M4010 906 c0 -8 5 -18 10 -21 6 -3 10 3 10 14 0 12 -4 21 -10 21 -5
0 -10 -6 -10 -14z"/>
<path d="M3980 866 c0 -7 7 -19 15 -26 12 -10 15 -9 15 8 0 11 -7 22 -15 26
-9 3 -15 0 -15 -8z"/>
<path d="M4024 1877 c-8 -21 3 -67 16 -67 13 0 13 50 0 70 -8 12 -10 12 -16
-3z"/>
<path d="M962 1740 c-27 -26 -28 -54 -2 -80 40 -40 90 -17 90 42 -1 54 -48 75
-88 38z m43 -30 c3 -5 -1 -10 -9 -10 -9 0 -16 5 -16 10 0 6 4 10 9 10 6 0 13
-4 16 -10z"/>
<path d="M2223 5003 c1 -24 4 -42 7 -40 3 1 23 11 45 22 50 24 49 24 43 30 -2
3 -19 -2 -37 -11 -34 -17 -46 -13 -54 21 -3 11 -4 1 -4 -22z"/>
<path d="M2345 4950 c-3 -5 -1 -10 4 -10 6 0 11 5 11 10 0 6 -2 10 -4 10 -3 0
-8 -4 -11 -10z"/>
<path d="M3990 4576 c0 -2 8 -10 18 -17 15 -13 16 -12 3 4 -13 16 -21 21 -21
13z"/>
<path d="M2588 4433 c6 -2 18 -2 25 0 6 3 1 5 -13 5 -14 0 -19 -2 -12 -5z"/>
<path d="M4150 4406 c0 -2 8 -10 18 -17 15 -13 16 -12 3 4 -13 16 -21 21 -21
13z"/>
<path d="M2700 4360 c25 -4 54 -4 65 1 13 5 -3 8 -45 7 -63 0 -63 -1 -20 -8z"/>
<path d="M3874 4331 c0 -11 35 -53 77 -93 42 -40 86 -86 98 -102 12 -16 24
-27 27 -23 4 4 -192 237 -201 237 -1 0 -2 -9 -1 -19z"/>
<path d="M2310 4248 c-16 -27 -29 -63 -17 -47 15 19 47 79 43 79 -4 0 -15 -15
-26 -32z"/>
<path d="M3036 4225 c-9 -26 -7 -32 5 -12 6 10 9 21 6 23 -2 3 -7 -2 -11 -11z"/>
<path d="M4130 4230 c0 -5 5 -10 11 -10 5 0 7 5 4 10 -3 6 -8 10 -11 10 -2 0
-4 -4 -4 -10z"/>
<path d="M4160 4205 c0 -5 9 -21 20 -35 11 -14 20 -20 20 -15 0 6 -9 21 -20
35 -11 14 -20 21 -20 15z"/>
<path d="M2153 3944 c-20 -15 -33 -34 -33 -47 1 -21 1 -21 11 -3 6 10 25 31
43 47 39 35 23 38 -21 3z"/>
<path d="M2283 3890 c0 -25 2 -35 4 -22 2 12 2 32 0 45 -2 12 -4 2 -4 -23z"/>
<path d="M1031 3894 c0 -11 3 -14 6 -6 3 7 2 16 -1 19 -3 4 -6 -2 -5 -13z"/>
<path d="M1995 3872 c-5 -33 -3 -47 9 -61 15 -16 14 -19 -7 -38 -12 -11 -38
-30 -57 -43 -19 -13 -72 -50 -116 -83 l-81 -59 43 -89 c40 -82 46 -89 64 -79
23 12 27 25 5 16 -8 -3 -15 -1 -15 4 0 15 133 104 194 131 l56 24 0 123 0 122
-26 -6 c-18 -5 -30 -1 -44 14 -11 11 -16 22 -11 24 5 2 5 12 1 23 -6 16 -9 11
-15 -23z"/>
<path d="M4919 3888 c5 -13 32 -70 60 -127 28 -57 51 -110 51 -118 0 -20 17
-15 23 7 3 11 2 18 -3 15 -11 -7 -33 52 -24 66 4 8 3 10 -5 5 -7 -5 -25 23
-53 83 -24 50 -46 91 -50 91 -4 0 -4 -10 1 -22z"/>
<path d="M4840 3862 c-19 -15 -51 -44 -71 -65 -21 -20 -44 -37 -53 -37 -9 0
-16 -4 -16 -10 0 -15 4 -13 76 31 93 57 124 81 124 96 0 20 -22 15 -60 -15z"/>
<path d="M3853 3833 c-40 -23 -62 -60 -28 -47 8 4 15 10 15 15 0 5 5 9 10 9
10 0 54 40 48 44 -1 1 -22 -8 -45 -21z"/>
<path d="M2889 3837 c7 -9 17 -14 22 -12 4 3 31 -6 60 -20 28 -15 53 -25 55
-22 5 5 -91 52 -126 63 -22 6 -23 5 -11 -9z"/>
<path d="M4890 3835 c-8 -9 -45 -35 -84 -57 -39 -23 -73 -43 -75 -45 -5 -3 58
-153 69 -166 4 -5 38 10 76 33 123 75 115 67 102 95 -6 14 -14 22 -17 17 -3
-5 -36 -23 -73 -40 -50 -23 -67 -36 -70 -54 -3 -16 -7 -8 -12 25 -6 33 -13 47
-24 47 -13 0 -12 3 4 15 15 12 16 16 6 23 -10 7 3 20 48 51 34 22 64 41 66 41
2 0 15 -21 28 -47 14 -27 25 -43 25 -38 0 6 -13 34 -28 63 -25 45 -30 50 -41
37z m75 -154 c-3 -6 -11 -11 -16 -11 -5 0 -4 6 3 14 14 16 24 13 13 -3z m-36
-14 c-22 -18 -98 -53 -88 -41 7 8 26 21 43 29 29 12 55 19 45 12z"/>
<path d="M1577 3811 c-17 -6 -17 -8 -4 -20 9 -7 13 -19 10 -27 -3 -8 -1 -14 5
-14 5 0 10 16 9 35 -1 19 -1 35 -1 34 -1 0 -9 -4 -19 -8z"/>
<path d="M2281 3744 c0 -33 2 -136 6 -227 5 -128 9 -167 19 -167 8 0 11 6 8
15 -4 9 -12 111 -19 228 -7 116 -13 185 -14 151z"/>
<path d="M1530 3785 c0 -14 41 -75 51 -75 6 0 -2 17 -18 38 -15 20 -28 39 -30
41 -2 2 -3 1 -3 -4z"/>
<path d="M2930 3780 c0 -5 6 -10 14 -10 34 0 41 -30 36 -176 0 -13 -9 -24 -21
-27 -18 -5 -21 -12 -17 -41 3 -24 0 -36 -8 -36 -6 0 -14 -7 -18 -15 -3 -8 -12
-15 -21 -15 -8 0 -15 -4 -15 -9 0 -16 -28 -20 -55 -8 -23 11 -25 16 -20 47 7
45 -7 25 -36 -50 -27 -69 -40 -122 -28 -114 5 3 9 14 9 24 0 26 19 35 36 18
11 -11 12 -21 5 -41 -9 -23 -8 -27 8 -27 10 0 26 -9 36 -20 22 -24 13 -26 -21
-3 -24 16 -27 16 -35 0 -8 -14 -13 -15 -29 -4 -11 6 -20 19 -20 27 -1 11 -3
11 -11 -3 -6 -10 -9 -19 -7 -20 41 -22 81 -46 112 -70 32 -26 40 -28 47 -15
16 29 183 233 271 331 48 55 88 103 88 109 0 5 -10 6 -21 3 -13 -5 -19 -3 -15
3 3 5 -6 18 -21 27 -18 12 -28 14 -31 7 -2 -7 -8 -12 -14 -12 -6 0 -5 7 3 16
7 9 9 18 3 22 -50 36 -97 61 -138 75 -58 20 -66 21 -66 7z m150 -68 c0 -4 -5
-13 -12 -20 -9 -9 -8 -16 5 -30 18 -19 14 -52 -5 -52 -6 0 -8 7 -4 15 3 8 1
15 -5 15 -6 0 -7 5 -4 10 3 6 -1 10 -9 10 -22 0 -20 13 4 28 12 7 18 17 15 22
-3 6 -1 10 4 10 6 0 11 -4 11 -8z m72 -85 c-7 -24 -56 -87 -67 -87 -4 0 -5 7
-1 15 3 8 1 15 -4 15 -6 0 -10 5 -10 11 0 6 7 8 16 5 17 -6 53 29 54 52 0 6 4
12 9 12 5 0 6 -10 3 -23z m-102 -1 c0 -3 -4 -8 -10 -11 -5 -3 -10 -1 -10 4 0
6 5 11 10 11 6 0 10 -2 10 -4z m120 -36 c0 -5 -4 -10 -10 -10 -5 0 -10 5 -10
10 0 6 5 10 10 10 6 0 10 -4 10 -10z m-135 -30 c-3 -5 -10 -10 -16 -10 -5 0
-9 5 -9 10 0 6 7 10 16 10 8 0 12 -4 9 -10z m-60 -40 c-6 -9 -9 -9 -16 1 -10
17 0 34 13 21 6 -6 7 -16 3 -22z m126 -13 l-23 -22 17 28 c10 15 20 25 23 22
3 -3 -5 -16 -17 -28z m-52 -36 c-15 -5 -22 6 -14 19 6 9 10 9 16 -1 5 -8 4
-15 -2 -18z m-49 9 c8 -5 11 -13 6 -17 -5 -4 -11 -2 -13 5 -3 6 -9 10 -13 7
-5 -3 -11 -1 -15 5 -8 13 15 13 35 0z m-204 -87 c-10 -10 -19 5 -10 18 6 11 8
11 12 0 2 -7 1 -15 -2 -18z m84 -13 c0 -5 -4 -10 -9 -10 -6 0 -13 5 -16 10 -3
6 1 10 9 10 9 0 16 -4 16 -10z m50 -44 c0 -5 -7 -3 -15 4 -8 7 -12 17 -9 22 7
10 24 -9 24 -26z"/>
<path d="M2850 3771 c0 -6 5 -13 10 -16 6 -3 10 1 10 9 0 9 -4 16 -10 16 -5 0
-10 -4 -10 -9z"/>
<path d="M4145 3760 c3 -5 11 -10 16 -10 6 0 7 5 4 10 -3 6 -11 10 -16 10 -6
0 -7 -4 -4 -10z"/>
<path d="M4189 3732 c12 -22 5 -33 -15 -25 -18 7 -18 -11 1 -27 11 -10 18 -9
30 3 21 21 19 40 -6 55 -18 12 -19 11 -10 -6z"/>
<path d="M3149 3707 c16 -20 71 -61 71 -54 0 3 -19 20 -42 38 -24 19 -37 26
-29 16z"/>
<path d="M2920 3701 c0 -5 5 -13 10 -16 6 -3 10 -2 10 4 0 5 -4 13 -10 16 -5
3 -10 2 -10 -4z"/>
<path d="M2955 3690 c3 -5 8 -10 11 -10 2 0 4 5 4 10 0 6 -5 10 -11 10 -5 0
-7 -4 -4 -10z"/>
<path d="M850 3659 c0 -8 7 -24 15 -35 19 -25 19 -14 0 22 -8 16 -15 22 -15
13z"/>
<path d="M2940 3631 c0 -6 5 -13 10 -16 6 -3 10 1 10 9 0 9 -4 16 -10 16 -5 0
-10 -4 -10 -9z"/>
<path d="M4898 3597 c-82 -52 -84 -53 -69 -71 11 -13 24 -9 97 27 68 34 84 46
82 62 -5 32 -38 27 -110 -18z"/>
<path d="M5034 3584 c-18 -14 -18 -15 4 -4 12 6 22 13 22 15 0 8 -5 6 -26 -11z"/>
<path d="M2822 3565 c-17 -37 -14 -45 4 -12 9 16 14 31 11 33 -2 2 -9 -7 -15
-21z"/>
<path d="M3997 3560 c15 -26 33 -40 33 -25 0 17 -26 55 -37 55 -11 0 -11 -6 4
-30z"/>
<path d="M2060 3560 c-13 -8 -13 -10 2 -10 9 0 19 -6 21 -12 3 -7 6 -3 6 10 1
24 -6 27 -29 12z"/>
<path d="M4030 3560 c0 -5 7 -10 16 -10 8 0 12 5 9 10 -3 6 -10 10 -16 10 -5
0 -9 -4 -9 -10z"/>
<path d="M2562 3525 c0 -16 2 -22 5 -12 2 9 2 23 0 30 -3 6 -5 -1 -5 -18z"/>
<path d="M2870 3540 c0 -5 5 -10 10 -10 6 0 10 5 10 10 0 6 -4 10 -10 10 -5 0
-10 -4 -10 -10z"/>
<path d="M2902 3510 c-7 -11 -8 -20 -3 -20 9 0 24 30 18 36 -1 2 -8 -6 -15
-16z"/>
<path d="M4036 3498 c-9 -12 -14 -24 -12 -26 5 -4 46 35 46 43 0 13 -20 3 -34
-17z"/>
<path d="M1350 3502 c0 -4 9 -13 20 -20 22 -13 27 -3 8 16 -14 14 -28 16 -28
4z"/>
<path d="M1458 3454 c52 -46 69 -74 33 -54 -25 13 -31 13 -31 -1 0 -6 -30 -44
-66 -84 l-65 -74 98 -77 c121 -95 120 -94 106 -94 -6 0 -53 34 -104 75 -52 41
-101 75 -109 75 -18 -1 -80 -50 -63 -50 7 0 10 -7 6 -17 -3 -10 8 -2 25 17 22
24 31 30 32 19 0 -9 -7 -22 -15 -29 -8 -7 -28 -34 -45 -61 l-30 -49 32 -16
c53 -27 152 -62 166 -57 20 8 13 -16 -9 -27 -25 -14 -16 -27 43 -59 41 -23 42
-23 21 -2 -12 11 -27 21 -33 21 -17 0 -12 10 36 60 25 26 50 55 57 64 11 15
15 14 40 -9 15 -14 27 -29 27 -33 0 -4 9 -13 20 -20 21 -13 21 -12 4 19 -9 18
-47 65 -84 104 -98 103 -100 109 -56 154 l36 37 -30 34 c-63 75 -25 50 77 -50
59 -58 98 -94 87 -80 -40 49 -65 90 -55 90 6 0 19 -13 30 -30 32 -53 32 -19
-1 39 -37 67 -84 119 -155 172 -72 54 -90 49 -25 -7z"/>
<path d="M2850 3475 c-10 -12 -10 -15 4 -15 9 0 16 7 16 15 0 8 -2 15 -4 15
-2 0 -9 -7 -16 -15z"/>
<path d="M4059 3463 c-11 -13 -11 -17 -1 -21 7 -2 19 -19 27 -38 8 -19 21 -34
29 -34 22 0 28 16 11 30 -8 6 -19 27 -25 46 -13 38 -21 42 -41 17z"/>
<path d="M1356 3440 c6 -8 13 -22 16 -30 3 -9 7 -10 11 -3 4 6 -3 19 -16 29
-12 11 -17 12 -11 4z"/>
<path d="M2606 3433 c-3 -10 -6 -40 -8 -67 -2 -49 -2 -50 38 -67 l41 -17 25
65 26 65 -32 13 c-61 24 -84 26 -90 8z"/>
<path d="M1286 3415 c4 -8 11 -15 16 -15 6 0 5 6 -2 15 -7 8 -14 15 -16 15 -2
0 -1 -7 2 -15z"/>
<path d="M4000 3415 c-20 -24 1 -38 28 -19 12 8 22 19 22 25 0 15 -36 10 -50
-6z"/>
<path d="M688 3414 c-6 -5 27 -44 37 -44 2 0 -1 11 -7 25 -11 25 -20 30 -30
19z"/>
<path d="M3467 3391 c-28 -27 -28 -27 -8 -45 25 -22 21 -30 -24 -52 -19 -9
-35 -22 -35 -29 0 -18 69 16 70 34 0 11 5 10 20 -4 18 -17 19 -41 0 -30 -5 3
-24 -4 -42 -15 -42 -25 -55 -25 -63 1 -4 11 -9 18 -12 16 -7 -8 26 -67 38 -67
17 0 100 45 178 97 4 3 -65 97 -81 110 -9 8 -21 3 -41 -16z m95 -65 c7 -12 6
-22 -1 -29 -7 -7 -14 -1 -24 21 -7 18 -16 29 -20 25 -11 -10 -8 -20 9 -38 9
-9 13 -19 9 -23 -4 -4 -10 -2 -12 5 -2 6 -17 27 -33 45 -27 30 -28 34 -13 51
16 17 18 16 46 -10 16 -16 33 -36 39 -47z"/>
<path d="M3486 3372 c-3 -6 -1 -14 5 -17 15 -10 25 3 12 16 -7 7 -13 7 -17 1z"/>
<path d="M1840 3370 c6 -11 13 -20 16 -20 2 0 0 9 -6 20 -6 11 -13 20 -16 20
-2 0 0 -9 6 -20z"/>
<path d="M2540 3352 c0 -14 6 -22 16 -22 14 0 15 3 3 18 -7 9 -15 19 -16 21
-2 2 -3 -5 -3 -17z"/>
<path d="M4046 3354 c-11 -8 -16 -14 -10 -14 13 0 39 18 34 24 -3 2 -14 -2
-24 -10z"/>
<path d="M3397 3332 c-37 -39 -34 -46 4 -11 18 16 30 32 27 34 -2 3 -17 -8
-31 -23z"/>
<path d="M1860 3331 c0 -6 4 -13 10 -16 6 -3 7 1 4 9 -7 18 -14 21 -14 7z"/>
<path d="M1266 3315 c4 -8 11 -15 16 -15 6 0 5 6 -2 15 -7 8 -14 15 -16 15 -2
0 -1 -7 2 -15z"/>
<path d="M2222 3294 c-82 -24 -162 -59 -162 -70 0 -4 9 -4 19 -1 13 3 18 1 15
-8 -4 -10 2 -11 28 -5 18 4 41 11 50 15 10 4 31 2 48 -3 29 -11 31 -9 50 29
19 36 46 57 34 24 -5 -12 0 -12 28 -5 47 14 46 15 95 -37 51 -54 51 -51 5 30
-34 57 -34 57 -80 56 -26 0 -84 -11 -130 -25z"/>
<path d="M2008 3303 c7 -3 16 -2 19 1 4 3 -2 6 -13 5 -11 0 -14 -3 -6 -6z"/>
<path d="M2436 3285 c9 -14 21 -22 28 -18 6 3 8 3 4 -2 -4 -4 -2 -17 4 -29 12
-21 12 -21 19 4 4 14 7 35 8 48 1 19 -4 22 -39 22 l-40 0 16 -25z"/>
<path d="M2527 3268 c-3 -22 -17 -62 -30 -88 -26 -50 -54 -136 -68 -205 -15
-80 33 -102 79 -35 29 43 47 52 39 20 -3 -11 -1 -23 4 -26 5 -3 9 -12 9 -21 0
-14 -3 -14 -20 2 -18 16 -20 16 -20 2 0 -10 5 -17 10 -17 6 0 10 -5 10 -11 0
-6 -7 -9 -15 -6 -8 4 -17 2 -20 -2 -3 -5 7 -14 23 -19 15 -5 35 -13 44 -17 15
-6 16 -3 5 24 -6 17 -7 34 -3 38 5 4 11 2 13 -4 3 -7 9 -13 14 -13 4 0 6 7 3
15 -7 17 15 42 139 167 48 48 87 91 87 96 0 22 -137 93 -183 95 -14 1 -23 5
-21 8 2 4 -4 9 -14 12 -9 3 -31 10 -48 15 -31 10 -32 10 -37 -30z m144 -113
c-17 -39 -28 -71 -27 -73 2 -1 17 11 34 28 61 61 93 18 35 -49 -52 -61 -90
-86 -109 -70 -13 11 -15 9 -12 -12 2 -13 0 -25 -4 -26 -5 -2 -8 0 -9 5 0 4 -7
15 -16 24 -13 14 -13 20 -3 33 7 8 16 13 20 10 4 -3 17 19 29 48 22 53 83 159
88 154 1 -2 -10 -34 -26 -72z m-131 4 c-12 -41 -35 -77 -45 -67 -4 4 5 29 21
57 31 58 38 61 24 10z"/>
<path d="M2048 3293 c-10 -2 -18 -9 -18 -14 0 -6 10 -5 23 2 37 20 36 23 -5
12z"/>
<path d="M1901 3270 c0 -19 23 -50 37 -50 24 0 62 24 62 39 -1 15 -2 15 -13 0
-7 -8 -22 -18 -35 -21 -17 -5 -26 0 -37 20 -8 15 -14 20 -14 12z"/>
<path d="M2395 3220 c3 -5 8 -10 11 -10 2 0 4 5 4 10 0 6 -5 10 -11 10 -5 0
-7 -4 -4 -10z"/>
<path d="M1826 3212 c-4 -7 -2 -12 3 -12 19 0 12 -29 -10 -41 -13 -7 -19 -7
-15 -1 3 6 1 14 -5 18 -13 8 -31 -16 -24 -33 2 -6 -3 -17 -11 -23 -16 -14 -19
-30 -5 -30 11 0 101 79 101 89 0 4 -6 15 -13 26 -10 12 -16 14 -21 7z"/>
<path d="M2146 3197 c-81 -46 -77 -42 -61 -63 11 -13 14 -14 13 -4 -4 18 79
60 102 52 8 -3 20 -13 27 -21 11 -15 12 -14 13 0 0 15 -20 38 -45 52 -5 3 -27
-5 -49 -16z"/>
<path d="M3290 3200 c8 -5 20 -10 25 -10 6 0 3 5 -5 10 -8 5 -19 10 -25 10 -5
0 -3 -5 5 -10z"/>
<path d="M2265 3189 c-4 -6 -5 -12 -2 -15 2 -3 7 2 10 11 7 17 1 20 -8 4z"/>
<path d="M3360 3174 c-30 -11 -32 -13 -10 -13 14 -1 32 3 40 9 24 15 8 17 -30
4z"/>
<path d="M1100 3169 c0 -9 7 -20 16 -23 23 -9 34 -7 34 5 0 5 -5 7 -11 4 -6
-4 -17 1 -24 11 -13 17 -14 17 -15 3z"/>
<path d="M1220 3140 c0 -5 5 -10 10 -10 6 0 10 5 10 10 0 6 -4 10 -10 10 -5 0
-10 -4 -10 -10z"/>
<path d="M2428 3133 c7 -3 16 -2 19 1 4 3 -2 6 -13 5 -11 0 -14 -3 -6 -6z"/>
<path d="M400 3122 c0 -6 6 -13 13 -15 10 -4 10 -6 0 -6 -22 -2 -14 -21 8 -21
15 0 20 5 17 22 -3 22 -38 40 -38 20z"/>
<path d="M3168 3081 c-47 -42 -31 -46 17 -5 22 18 34 34 28 34 -7 0 -27 -13
-45 -29z"/>
<path d="M1160 3090 c0 -6 7 -10 15 -10 8 0 15 2 15 4 0 2 -7 6 -15 10 -8 3
-15 1 -15 -4z"/>
<path d="M2093 3052 c-103 -52 -110 -64 -65 -111 l27 -30 49 17 c74 24 122 99
100 156 -3 9 -9 16 -13 15 -3 0 -48 -21 -98 -47z m95 9 c12 -7 12 -13 -1 -36
-9 -18 -17 -24 -21 -16 -4 6 -2 11 3 11 6 0 11 9 11 21 0 11 -4 17 -10 14 -5
-3 -10 -1 -10 4 0 13 10 14 28 2z m-145 -72 c-4 -15 -9 -17 -17 -9 -8 8 -7 13
4 20 8 5 16 10 17 10 0 0 -1 -9 -4 -21z"/>
<path d="M1965 3080 c-3 -5 1 -10 10 -10 9 0 13 5 10 10 -3 6 -8 10 -10 10 -2
0 -7 -4 -10 -10z"/>
<path d="M3079 2989 c-23 -19 -23 -20 -2 -10 12 6 25 16 28 21 10 16 -1 12
-26 -11z"/>
<path d="M1145 2989 c-4 -6 -5 -12 -2 -15 2 -3 7 2 10 11 7 17 1 20 -8 4z"/>
<path d="M1725 2990 c-3 -5 -2 -10 4 -10 5 0 13 5 16 10 3 6 2 10 -4 10 -5 0
-13 -4 -16 -10z"/>
<path d="M1176 2974 c-4 -9 -4 -19 -1 -22 2 -3 7 3 11 12 4 9 4 19 1 22 -2 3
-7 -3 -11 -12z"/>
<path d="M1760 2972 c0 -4 10 -13 23 -21 22 -14 22 -14 3 8 -20 22 -26 25 -26
13z"/>
<path d="M2785 2960 c10 -11 20 -18 23 -15 7 6 -18 35 -31 35 -5 0 -2 -9 8
-20z"/>
<path d="M1810 2966 c0 -2 7 -9 15 -16 9 -7 15 -8 15 -2 0 5 -7 12 -15 16 -8
3 -15 4 -15 2z"/>
<path d="M990 2940 c-9 -6 -10 -10 -3 -10 6 0 15 5 18 10 8 12 4 12 -15 0z"/>
<path d="M1256 2943 c-11 -11 -6 -23 9 -23 8 0 15 4 15 9 0 13 -16 22 -24 14z"/>
<path d="M1645 2910 c10 -11 20 -20 23 -20 3 0 -3 9 -13 20 -10 11 -20 20 -23
20 -3 0 3 -9 13 -20z"/>
<path d="M960 2910 c0 -5 5 -10 10 -10 6 0 10 5 10 10 0 6 -4 10 -10 10 -5 0
-10 -4 -10 -10z"/>
<path d="M2130 2916 c0 -2 6 -17 13 -34 9 -22 17 -28 26 -23 11 7 10 14 -4 35
-15 22 -35 35 -35 22z"/>
<path d="M2683 2893 c-28 -29 -29 -37 -3 -23 28 15 54 5 95 -36 19 -19 35 -31
35 -26 0 19 -47 77 -75 92 -29 16 -31 16 -52 -7z"/>
<path d="M980 2890 c-8 -5 -12 -12 -9 -15 4 -3 12 1 19 10 14 17 11 19 -10 5z"/>
<path d="M1935 2890 c-4 -6 -11 -7 -17 -4 -7 4 -8 2 -4 -4 10 -16 23 -15 30 3
6 17 0 20 -9 5z"/>
<path d="M2090 2886 c0 -8 4 -17 9 -21 6 -3 9 4 8 15 -1 23 -17 28 -17 6z"/>
<path d="M1830 2880 c-8 -5 -12 -12 -9 -15 4 -3 12 1 19 10 14 17 11 19 -10 5z"/>
<path d="M2220 2876 c0 -9 5 -16 10 -16 6 0 10 4 10 9 0 6 -4 13 -10 16 -5 3
-10 -1 -10 -9z"/>
<path d="M1680 2877 c0 -2 14 -16 32 -33 l31 -29 -22 33 c-18 26 -41 42 -41
29z"/>
<path d="M1005 2860 c-3 -5 1 -10 9 -10 9 0 16 5 16 10 0 6 -4 10 -9 10 -6 0
-13 -4 -16 -10z"/>
<path d="M1774 2828 l-19 -23 23 19 c21 18 27 26 19 26 -2 0 -12 -10 -23 -22z"/>
<path d="M996 2809 c-15 -21 -42 -18 -30 4 5 9 4 9 -6 0 -16 -15 -7 -29 29
-41 24 -8 32 -7 43 5 11 14 10 15 -10 9 -16 -6 -22 -3 -22 8 0 9 9 16 21 16
11 0 17 5 14 10 -10 16 -23 12 -39 -11z"/>
<path d="M2720 2820 c0 -5 5 -10 11 -10 5 0 7 5 4 10 -3 6 -8 10 -11 10 -2 0
-4 -4 -4 -10z"/>
<path d="M1765 2780 c10 -11 19 -20 21 -20 1 0 0 9 -3 20 -3 11 -12 20 -21 20
-13 0 -12 -3 3 -20z"/>
<path d="M1643 2707 c5 -49 3 -57 -11 -58 -11 0 -12 -2 -4 -6 6 -2 12 -20 12
-39 0 -28 5 -36 26 -44 14 -6 30 -10 36 -10 17 0 0 80 -27 127 -14 23 -22 48
-19 56 3 8 0 18 -7 23 -9 5 -11 -6 -6 -49z"/>
<path d="M1701 2714 c0 -11 3 -14 6 -6 3 7 2 16 -1 19 -3 4 -6 -2 -5 -13z"/>
<path d="M1919 2683 c-13 -16 -12 -17 4 -4 16 13 21 21 13 21 -2 0 -10 -8 -17
-17z"/>
<path d="M1750 2686 c0 -2 8 -10 18 -17 15 -13 16 -12 3 4 -13 16 -21 21 -21
13z"/>
<path d="M1371 2644 c-25 -31 -27 -54 -6 -54 8 0 34 -9 57 -19 86 -39 148 -60
148 -50 0 5 -4 9 -9 9 -6 0 -45 16 -87 35 -55 25 -74 39 -67 46 8 8 16 7 29 0
34 -19 126 -52 132 -46 8 7 4 9 -73 36 -49 17 -73 31 -80 47 -13 28 -19 28
-44 -4z"/>
<path d="M1720 2666 c0 -2 8 -10 18 -17 15 -13 16 -12 3 4 -13 16 -21 21 -21
13z"/>
<path d="M1580 2621 c0 -6 5 -13 10 -16 6 -3 10 1 10 9 0 9 -4 16 -10 16 -5 0
-10 -4 -10 -9z"/>
<path d="M1762 2608 c2 -6 15 -18 29 -27 l24 -15 -24 27 c-26 29 -35 34 -29
15z"/>
<path d="M1580 2580 c0 -5 5 -10 11 -10 5 0 7 5 4 10 -3 6 -8 10 -11 10 -2 0
-4 -4 -4 -10z"/>
<path d="M1826 2557 c3 -10 9 -15 12 -12 3 3 0 11 -7 18 -10 9 -11 8 -5 -6z"/>
<path d="M1623 2511 c-14 -22 -8 -31 19 -31 11 0 33 -7 49 -16 l30 -15 -16 25
c-14 20 -56 56 -67 56 -2 0 -9 -9 -15 -19z"/>
<path d="M1696 2516 c10 -8 21 -12 24 -10 5 6 -21 24 -34 24 -6 0 -1 -6 10
-14z"/>
<path d="M1590 2509 c0 -5 5 -7 10 -4 6 3 10 8 10 11 0 2 -4 4 -10 4 -5 0 -10
-5 -10 -11z"/>
<path d="M1755 2490 c3 -5 11 -10 16 -10 6 0 7 5 4 10 -3 6 -11 10 -16 10 -6
0 -7 -4 -4 -10z"/>
<path d="M623 2478 c-29 -14 -30 -58 -2 -84 18 -17 23 -17 46 -4 41 24 49 44
30 74 -19 28 -38 31 -74 14z m57 -23 c9 -11 8 -18 -9 -36 -23 -25 -51 -19 -51
10 0 11 8 25 18 30 23 14 28 13 42 -4z"/>
<path d="M2995 2460 c-3 -5 -1 -10 4 -10 6 0 11 5 11 10 0 6 -2 10 -4 10 -3 0
-8 -4 -11 -10z"/>
<path d="M305 2424 c-109 -19 -165 -35 -165 -46 0 -6 8 -7 17 -3 10 4 72 18
138 31 66 14 125 27 130 29 22 8 -45 2 -120 -11z"/>
<path d="M761 2424 c0 -11 3 -14 6 -6 3 7 2 16 -1 19 -3 4 -6 -2 -5 -13z"/>
<path d="M374 2250 c3 -8 1 -22 -4 -30 -9 -13 -11 -13 -21 0 -9 12 -10 12 -7
1 7 -24 26 -24 38 -1 9 17 9 25 0 34 -8 8 -10 7 -6 -4z"/>
<path d="M50 2246 c0 -2 8 -10 18 -17 15 -13 16 -12 3 4 -13 16 -21 21 -21 13z"/>
<path d="M1580 2241 c0 -9 69 -5 79 4 2 3 -14 5 -37 5 -23 0 -42 -4 -42 -9z"/>
<path d="M3146 2232 c-2 -4 -1 -14 5 -22 7 -12 9 -10 9 8 0 23 -5 28 -14 14z"/>
<path d="M466 2223 c-12 -12 -6 -22 9 -17 9 4 15 1 15 -7 -1 -22 -28 -52 -39
-44 -12 7 -25 -18 -19 -36 4 -13 78 60 78 78 0 15 -35 35 -44 26z"/>
<path d="M78 2155 c-16 -18 -28 -39 -28 -46 0 -8 9 -1 20 16 10 16 30 37 42
47 16 12 18 17 8 17 -8 0 -27 -15 -42 -34z"/>
<path d="M695 2160 c-3 -5 -2 -10 4 -10 5 0 13 5 16 10 3 6 2 10 -4 10 -5 0
-13 -4 -16 -10z"/>
<path d="M445 2084 c-6 -8 -23 -17 -38 -18 -16 -2 -34 -9 -40 -16 -9 -10 -8
-11 8 -7 11 3 35 8 53 12 23 5 32 12 32 26 0 23 -2 24 -15 3z"/>
<path d="M299 2080 c-1 -5 -2 -15 -3 -22 -1 -15 -26 -23 -26 -9 0 6 -4 11 -10
11 -5 0 -7 -7 -3 -16 10 -26 56 -13 64 19 5 20 4 27 -7 27 -8 0 -15 -4 -15
-10z"/>
<path d="M10 2026 c0 -7 113 -66 117 -62 8 8 -76 66 -96 66 -12 0 -21 -2 -21
-4z"/>
<path d="M3043 2000 c-10 -11 -26 -20 -36 -20 -30 0 -13 -25 19 -28 16 -2 33
-8 39 -13 14 -14 35 -11 35 5 0 9 -7 12 -20 9 -17 -5 -20 0 -20 27 0 27 3 32
20 27 11 -3 18 -1 14 4 -9 15 -33 10 -51 -11z"/>
<path d="M3235 2010 c3 -5 8 -10 11 -10 2 0 4 5 4 10 0 6 -5 10 -11 10 -5 0
-7 -4 -4 -10z"/>
<path d="M3110 2000 c0 -5 5 -10 11 -10 5 0 7 5 4 10 -3 6 -8 10 -11 10 -2 0
-4 -4 -4 -10z"/>
<path d="M1511 1964 c0 -11 3 -14 6 -6 3 7 2 16 -1 19 -3 4 -6 -2 -5 -13z"/>
<path d="M2930 1953 c0 -13 145 -66 162 -60 15 5 -90 55 -134 64 -16 3 -28 1
-28 -4z"/>
<path d="M1530 1926 c0 -8 -6 -16 -14 -19 -9 -4 -12 -14 -9 -26 4 -15 1 -21
-12 -21 -13 0 -16 6 -12 23 6 22 6 22 -9 2 -8 -11 -14 -31 -12 -45 1 -14 -2
-31 -6 -39 -7 -11 -4 -13 17 -7 15 3 29 1 32 -5 8 -12 -10 -59 -42 -112 -23
-36 -23 -38 -4 -27 12 6 21 15 21 21 0 6 5 7 11 4 12 -8 117 59 125 80 5 12
-72 185 -82 185 -2 0 -4 -6 -4 -14z m-26 -85 c3 -5 -1 -14 -9 -21 -13 -10 -15
-9 -15 9 0 21 14 28 24 12z"/>
<path d="M2850 1789 c-21 -17 -22 -19 -3 -10 29 15 31 14 36 -11 3 -17 5 -14
6 10 1 37 -5 39 -39 11z"/>
<path d="M2770 1745 c-9 -11 -7 -19 9 -36 12 -13 21 -26 21 -30 0 -4 9 -9 20
-12 12 -3 30 -26 45 -59 l24 -53 -1 90 c-1 60 -3 77 -7 51 l-6 -39 -47 51
c-38 41 -49 48 -58 37z"/>
<path d="M1461 1723 c-10 -26 -10 -27 4 -9 8 11 15 23 15 28 0 15 -7 8 -19
-19z"/>
<path d="M2494 1420 c0 -63 1 -89 3 -57 2 31 2 83 0 115 -2 31 -3 5 -3 -58z"/>
<path d="M2821 1490 c12 -22 25 -38 27 -35 5 4 -37 75 -44 75 -3 0 5 -18 17
-40z"/>
<path d="M2273 1365 c0 -44 2 -61 4 -37 2 23 2 59 0 80 -2 20 -4 1 -4 -43z"/>
<path d="M2365 1410 c-30 -8 -30 -8 8 -9 20 0 37 4 37 9 0 11 -2 11 -45 0z"/>
<path d="M317 1269 c-35 -27 -34 -45 4 -58 43 -15 71 -14 95 4 23 17 19 18
-24 5 -29 -8 -33 -7 -28 6 4 12 1 14 -14 9 -15 -5 -20 -2 -20 13 0 11 6 22 13
25 6 2 9 7 6 11 -3 3 -18 -3 -32 -15z"/>
<path d="M1380 1272 c0 -13 -5 -20 -12 -17 -12 4 -54 -63 -45 -71 9 -9 37 9
30 19 -3 6 -1 7 5 3 6 -4 22 0 35 8 22 15 25 14 58 -14 18 -16 39 -29 45 -30
7 0 14 -9 17 -19 5 -20 -79 -138 -91 -127 -3 4 6 19 20 34 40 43 61 79 49 87
-6 3 -11 1 -11 -5 0 -6 -18 -34 -40 -62 -38 -48 -40 -52 -24 -69 15 -17 15
-21 -7 -56 -23 -38 -23 -38 -1 -19 36 31 25 3 -13 -34 -42 -40 -42 -37 -11 34
l25 55 -20 26 c-11 14 -25 25 -30 25 -15 0 -48 -33 -43 -42 3 -5 0 -15 -6 -23
-12 -15 -6 -35 11 -35 6 0 17 -6 25 -14 22 -22 -2 -29 -27 -9 -50 42 -50 42
-34 74 9 16 24 35 35 42 11 6 20 18 20 25 0 7 4 10 10 7 6 -3 7 1 4 9 -3 9
-10 16 -14 16 -10 0 -59 -58 -82 -98 l-17 -29 70 -58 c59 -48 73 -55 84 -44 7
8 49 75 94 149 l81 135 -25 20 c-14 12 -50 36 -80 54 -48 29 -57 32 -72 20
-15 -13 -15 -12 -2 8 11 18 11 25 1 35 -9 9 -12 7 -12 -10z m109 -229 c-43
-80 -68 -115 -55 -78 8 24 87 155 92 155 3 0 -14 -35 -37 -77z m-113 -89 c-6
-21 -9 -22 -26 -12 -11 7 -20 20 -20 28 1 12 4 11 15 -4 18 -24 30 -15 16 12
-12 23 -1 40 12 17 5 -9 6 -27 3 -41z"/>
<path d="M2041 1232 c-1 -16 -6 -22 -18 -20 -14 2 -19 -5 -21 -37 -5 -56 6
-107 21 -98 8 4 7 1 -1 -10 -8 -9 -11 -21 -7 -27 3 -5 2 -10 -4 -10 -13 0 -2
-62 13 -72 7 -5 4 -8 -6 -8 -16 0 -18 -12 -18 -120 0 -73 4 -120 10 -120 6 0
10 7 10 15 0 8 4 15 10 15 5 0 14 15 19 33 5 17 10 24 10 15 1 -22 21 -24 21
-2 0 8 4 13 9 10 15 -10 22 43 20 140 -2 57 -6 91 -12 87 -6 -4 -8 3 -5 15 4
12 1 25 -4 29 -6 3 -8 1 -4 -5 3 -6 2 -13 -4 -17 -6 -4 -8 -10 -5 -15 3 -4 1
-19 -4 -32 -8 -17 -10 -4 -11 57 -2 83 -16 217 -19 177z"/>
<path d="M1955 1190 c3 -5 8 -10 11 -10 2 0 4 5 4 10 0 6 -5 10 -11 10 -5 0
-7 -4 -4 -10z"/>
<path d="M436 1146 c5 -14 -77 -58 -133 -72 -13 -4 -22 -11 -21 -16 5 -13 2
-14 105 33 74 34 91 45 82 56 -15 17 -40 17 -33 -1z"/>
<path d="M2843 1149 c3 -9 0 -22 -6 -28 -13 -13 2 -14 23 -1 13 8 12 12 -4 27
-16 15 -18 16 -13 2z"/>
<path d="M2899 1158 c-5 -17 -4 -50 3 -54 4 -3 8 9 8 25 0 17 -2 31 -5 31 -3
0 -5 -1 -6 -2z"/>
<path d="M2377 1052 c-13 -14 -16 -29 -11 -63 5 -40 3 -46 -24 -70 -26 -24
-30 -35 -36 -109 -8 -88 -4 -104 19 -74 13 17 14 15 12 -26 -2 -44 -1 -45 31
-48 17 -2 32 -7 32 -13 0 -14 -43 -11 -66 5 -20 14 -20 13 -12 -56 7 -72 18
-103 18 -54 0 26 1 26 19 9 11 -10 21 -31 24 -48 l4 -30 2 33 c1 37 27 45 34
10 3 -17 5 -15 6 9 2 56 21 48 22 -9 1 -50 1 -51 9 -18 5 19 12 64 16 100 4
36 13 74 20 85 32 45 0 220 -43 240 -17 7 -20 15 -16 37 3 15 1 34 -4 40 -6 7
-13 25 -17 41 -8 32 -17 34 -39 9z m23 -16 c0 -2 -7 -7 -16 -10 -8 -3 -12 -2
-9 4 6 10 25 14 25 6z m-15 -256 c-3 -5 -11 -10 -16 -10 -6 0 -7 5 -4 10 3 6
11 10 16 10 6 0 7 -4 4 -10z m95 -46 c10 -41 -10 -84 -38 -84 -12 0 -11 5 7
24 18 19 21 30 15 67 -8 52 4 47 16 -7z m-115 -54 c3 -5 1 -10 -4 -10 -6 0
-11 5 -11 10 0 6 2 10 4 10 3 0 8 -4 11 -10z"/>
<path d="M2683 1058 c-17 -23 -22 -47 -11 -54 7 -4 5 -10 -6 -16 -16 -9 -16
-11 0 -22 19 -14 17 -19 -21 -81 -19 -32 -24 -54 -25 -112 0 -39 5 -75 10 -78
6 -4 10 7 10 27 0 18 5 40 10 48 16 25 12 -76 -5 -118 l-15 -37 20 25 20 25 0
-30 c1 -56 40 -193 40 -141 0 9 4 15 9 11 5 -3 11 5 13 17 4 27 21 27 27 1 2
-10 7 -20 11 -23 4 -3 12 -23 18 -45 9 -36 10 -30 11 59 1 76 5 104 17 117 14
16 15 28 5 96 -25 170 -26 175 -61 203 -28 23 -32 30 -25 59 5 22 2 39 -9 56
-18 28 -29 31 -43 13z m17 -154 c0 -8 -4 -12 -10 -9 -5 3 -10 10 -10 16 0 5 5
9 10 9 6 0 10 -7 10 -16z m97 -246 c-2 -13 -4 -5 -4 17 -1 22 1 32 4 23 2 -10
2 -28 0 -40z"/>
<path d="M361 1050 c0 -8 4 -24 9 -35 l9 -20 0 20 c0 11 -4 27 -9 35 -9 13
-10 13 -9 0z"/>
<path d="M1814 876 c-41 -50 -60 -86 -44 -86 6 0 10 9 10 20 0 11 5 20 11 20
8 0 10 -12 6 -35 -6 -39 -2 -43 25 -19 16 16 18 15 26 -6 7 -18 10 -7 15 50 9
103 -1 114 -49 56z"/>
<path d="M3060 690 c-24 -18 -24 -19 -3 -14 12 4 28 12 34 20 17 20 -2 17 -31
-6z"/>
<path d="M486 663 c-6 -14 -5 -15 5 -6 7 7 10 15 7 18 -3 3 -9 -2 -12 -12z"/>
<path d="M1575 670 c-3 -5 -1 -10 4 -10 6 0 11 5 11 10 0 6 -2 10 -4 10 -3 0
-8 -4 -11 -10z"/>
<path d="M1518 549 c-9 -5 -15 -16 -12 -23 3 -8 -12 -34 -32 -58 -74 -84 -73
-82 -41 -74 17 4 27 2 27 -5 0 -6 6 -9 13 -6 49 20 50 20 42 6 -5 -8 -5 -11 1
-6 5 5 9 12 9 17 0 4 12 20 28 34 31 29 33 40 12 90 -16 39 -21 41 -47 25z"/>
<path d="M1370 410 c0 -5 5 -10 11 -10 5 0 7 5 4 10 -3 6 -8 10 -11 10 -2 0
-4 -4 -4 -10z"/>
<path d="M3168 214 c-4 -6 -12 -24 -18 -40 l-11 -29 21 21 c12 12 20 30 18 40
-2 12 -6 15 -10 8z"/>
</g>
</svg>
