<?xml version="1.0" encoding="UTF-8"?>
<svg id="Calque_2" data-name="Calque 2" xmlns="http://www.w3.org/2000/svg" viewBox="0 0 226 226">
  <defs>
    <style>
      .cls-1 {
        fill: #e20909;
      }
    </style>
  </defs>
  <g id="Wheel_without_border">
    <g id="wheel_group">
      <path class="cls-1" d="m86,4l17,18h20.26l16.74-18s-5-4-27-4c-20,0-27,4-27,4Z"/>
      <path class="cls-1" d="m16.63,54.52l24.75.71,14.32-14.32-.89-24.57s-6.36.71-21.92,16.26c-14.14,14.14-16.26,21.92-16.26,21.92Z"/>
      <path class="cls-1" d="m4,140l18-17v-20.26s-18-16.74-18-16.74C4,86,0,91,0,113c0,20,4,27,4,27Z"/>
      <path class="cls-1" d="m55.52,209.37l.71-24.75-14.32-14.32-24.57.89s.71,6.36,16.26,21.92c14.14,14.14,21.92,16.26,21.92,16.26Z"/>
      <path class="cls-1" d="m141,222l-17-18h-20.26s-16.74,18-16.74,18c0,0,5,4,27,4,20,0,27-4,27-4Z"/>
      <path class="cls-1" d="m210.37,169.48l-24.75-.71-14.32,14.32.89,24.57s6.36-.71,21.92-16.26c14.14-14.14,16.26-21.92,16.26-21.92Z"/>
      <path class="cls-1" d="m222,85l-18,17v20.26s18,16.74,18,16.74c0,0,4-5,4-27,0-20-4-27-4-27Z"/>
      <path class="cls-1" d="m171.48,16.63l-.71,24.75,14.32,14.32,24.57-.89s-.71-6.36-16.26-21.92c-14.14-14.14-21.92-16.26-21.92-16.26Z"/>
      <path class="cls-1" d="m113,21c-50.81,0-92,41.19-92,92s41.19,92,92,92,92-41.19,92-92S163.81,21,113,21Zm11,24.82c28.87,4.51,51.66,27.32,56.17,56.18h-41.17v-15h-15v-41.18Zm-22,.18v41h-15v15h-40.17c4.46-28.53,26.78-51.13,55.17-56Zm0,133.01c-28.06-4.82-50.19-26.95-55.01-55h40.01v15h15v40Zm-2.5-52.5v-27h27v27h-27Zm24.5,52.67v-40.17h15v-15h41c-4.88,28.39-27.48,50.71-56,55.17Z"/>
    </g>
  </g>
</svg>