<?xml version="1.0" encoding="UTF-8"?>
<svg id="Calque_2" data-name="Calque 2" xmlns="http://www.w3.org/2000/svg" viewBox="0 0 136.7 235.72">
  <g id="Details">
    <polyline points="77.69 40.33 82.25 224.5 90.41 224.5 85.91 40.17" style="fill: none; stroke: #888d91; stroke-miterlimit: 10;"/>
    <line x1="82.25" y1="40.17" x2="86.3" y2="224.5" style="fill: none; stroke: #888d91; stroke-miterlimit: 10;"/>
    <line x1="17.81" y1="61.82" x2="17.81" y2="222.66" style="fill: none; stroke: #888d91; stroke-miterlimit: 10;"/>
    <line x1="22.92" y1="61.19" x2="22.92" y2="222.66" style="fill: none; stroke: #888d91; stroke-miterlimit: 10;"/>
    <line x1="28.94" y1="60.17" x2="28.94" y2="222.19" style="fill: none; stroke: #888d91; stroke-miterlimit: 10;"/>
    <line x1="36.01" y1="58.56" x2="36.01" y2="221.85" style="fill: none; stroke: #888d91; stroke-miterlimit: 10;"/>
    <line x1="41.57" y1="56.94" x2="41.57" y2="221.85" style="fill: none; stroke: #888d91; stroke-miterlimit: 10;"/>
    <line x1="47.08" y1="54.99" x2="47.08" y2="221.5" style="fill: none; stroke: #888d91; stroke-miterlimit: 10;"/>
    <line x1="52.17" y1="52.82" x2="52.17" y2="221.5" style="fill: none; stroke: #888d91; stroke-miterlimit: 10;"/>
    <line x1="56.64" y1="50.56" x2="56.64" y2="222.48" style="fill: none; stroke: #888d91; stroke-miterlimit: 10;"/>
    <line x1="61.25" y1="47.83" x2="61.25" y2="222.66" style="fill: none; stroke: #888d91; stroke-miterlimit: 10;"/>
    <line x1="65.26" y1="45.03" x2="65.26" y2="223.57" style="fill: none; stroke: #888d91; stroke-miterlimit: 10;"/>
    <path d="m9.37,66.82s34.13,1.68,60.13-20.32" style="fill: none; stroke: #888d91; stroke-miterlimit: 10;"/>
    <path d="m9.37,70.82s34.13,1.68,60.13-20.32" style="fill: none; stroke: #888d91; stroke-miterlimit: 10;"/>
    <path d="m9.37,74.82s34.13,1.68,60.13-20.32" style="fill: none; stroke: #888d91; stroke-miterlimit: 10;"/>
    <path d="m9.37,78.82s34.13,1.68,60.13-20.32" style="fill: none; stroke: #888d91; stroke-miterlimit: 10;"/>
    <path d="m9.37,82.82s34.13,1.68,60.13-20.32" style="fill: none; stroke: #888d91; stroke-miterlimit: 10;"/>
    <path d="m9.37,86.82s34.13,1.68,60.13-20.32" style="fill: none; stroke: #888d91; stroke-miterlimit: 10;"/>
    <path d="m9.37,90.82s34.13,1.68,60.13-20.32" style="fill: none; stroke: #888d91; stroke-miterlimit: 10;"/>
    <path d="m9.37,94.82s34.13,1.68,60.13-20.32" style="fill: none; stroke: #888d91; stroke-miterlimit: 10;"/>
    <path d="m9.37,99.82s34.13,1.68,60.13-20.32" style="fill: none; stroke: #888d91; stroke-miterlimit: 10;"/>
    <path d="m9.37,103.82s34.13,1.68,60.13-20.32" style="fill: none; stroke: #888d91; stroke-miterlimit: 10;"/>
    <path d="m9.5,106.5s35,2,61-20" style="fill: none; stroke: #888d91; stroke-miterlimit: 10;"/>
    <path d="m9.5,110.5s35,2,61-20" style="fill: none; stroke: #888d91; stroke-miterlimit: 10;"/>
    <path d="m9.5,113.5s35,2,61-20" style="fill: none; stroke: #888d91; stroke-miterlimit: 10;"/>
    <path d="m9.5,117.5s35,2,61-20" style="fill: none; stroke: #888d91; stroke-miterlimit: 10;"/>
    <path d="m9.5,121.5s35,2,61-20" style="fill: none; stroke: #888d91; stroke-miterlimit: 10;"/>
    <path d="m9.5,126.5s35,2,61-20" style="fill: none; stroke: #888d91; stroke-miterlimit: 10;"/>
    <path d="m9.5,132.5s35,2,61-20" style="fill: none; stroke: #888d91; stroke-miterlimit: 10;"/>
    <path d="m9.5,139.5s35,2,61-20" style="fill: none; stroke: #888d91; stroke-miterlimit: 10;"/>
    <path d="m9.5,145.5s35,2,61-20" style="fill: none; stroke: #888d91; stroke-miterlimit: 10;"/>
    <path d="m9.5,151.5s35,2,61-20" style="fill: none; stroke: #888d91; stroke-miterlimit: 10;"/>
    <path d="m9.5,157.5s35,2,61-20" style="fill: none; stroke: #888d91; stroke-miterlimit: 10;"/>
    <path d="m9.5,163.5s36,2,62-20" style="fill: none; stroke: #888d91; stroke-miterlimit: 10;"/>
    <path d="m9.5,169.5s36,2,62-20" style="fill: none; stroke: #888d91; stroke-miterlimit: 10;"/>
    <path d="m9.5,175.5s36,2,62-20" style="fill: none; stroke: #888d91; stroke-miterlimit: 10;"/>
    <path d="m9.5,181.5s36,2,62-20" style="fill: none; stroke: #888d91; stroke-miterlimit: 10;"/>
    <path d="m9.5,188.5s36,2,62-20" style="fill: none; stroke: #888d91; stroke-miterlimit: 10;"/>
    <path d="m9.5,195.5s36,2,62-20" style="fill: none; stroke: #888d91; stroke-miterlimit: 10;"/>
    <path d="m9.5,203.5s36,2,62-20" style="fill: none; stroke: #888d91; stroke-miterlimit: 10;"/>
    <path d="m9.5,210.5s36,2,62-20" style="fill: none; stroke: #888d91; stroke-miterlimit: 10;"/>
    <path d="m9.5,217.5s36,2,62-20" style="fill: none; stroke: #888d91; stroke-miterlimit: 10;"/>
    <path d="m52.5,221.5s9-3,20-15" style="fill: none; stroke: #888d91; stroke-miterlimit: 10;"/>
    <line x1="106.67" y1="60.67" x2="106.67" y2="224.15" style="fill: none; stroke: #888d91; stroke-miterlimit: 10;"/>
    <line x1="110.78" y1="61.82" x2="110.78" y2="223.57" style="fill: none; stroke: #888d91; stroke-miterlimit: 10;"/>
    <line x1="116.24" y1="62.5" x2="116.24" y2="223.57" style="fill: none; stroke: #888d91; stroke-miterlimit: 10;"/>
    <line x1="120.48" y1="63.7" x2="120.48" y2="223.68" style="fill: none; stroke: #888d91; stroke-miterlimit: 10;"/>
    <path d="m99.45,64.94s3.05,4.56,27.05,7.56" style="fill: none; stroke: #888d91; stroke-miterlimit: 10;"/>
    <path d="m99.45,71.94s3.05,4.56,27.05,7.56" style="fill: none; stroke: #888d91; stroke-miterlimit: 10;"/>
    <path d="m99.45,79.94s3.05,4.56,27.05,7.56" style="fill: none; stroke: #888d91; stroke-miterlimit: 10;"/>
    <path d="m99.45,85.94s3.05,4.56,27.05,7.56" style="fill: none; stroke: #888d91; stroke-miterlimit: 10;"/>
    <path d="m99.45,93.94s3.05,4.56,27.05,7.56" style="fill: none; stroke: #888d91; stroke-miterlimit: 10;"/>
    <path d="m99.45,102.94s3.05,4.56,27.05,7.56" style="fill: none; stroke: #888d91; stroke-miterlimit: 10;"/>
    <path d="m100.5,114.5s2,3,26,6" style="fill: none; stroke: #888d91; stroke-miterlimit: 10;"/>
    <path d="m100.5,124.5s2,3,26,6" style="fill: none; stroke: #888d91; stroke-miterlimit: 10;"/>
    <path d="m100.5,130.5s2,3,26,6" style="fill: none; stroke: #888d91; stroke-miterlimit: 10;"/>
    <path d="m100.5,137.5s2,3,26,6" style="fill: none; stroke: #888d91; stroke-miterlimit: 10;"/>
    <path d="m100.5,147.5s2,3,26,6" style="fill: none; stroke: #888d91; stroke-miterlimit: 10;"/>
    <path d="m100.5,157.5s2,3,26,6" style="fill: none; stroke: #888d91; stroke-miterlimit: 10;"/>
    <path d="m101.5,167.5s1,2,25,5" style="fill: none; stroke: #888d91; stroke-miterlimit: 10;"/>
    <path d="m101.5,179.5s1,3,25,6" style="fill: none; stroke: #888d91; stroke-miterlimit: 10;"/>
    <path d="m101.5,191.5s1,2,25,5" style="fill: none; stroke: #888d91; stroke-miterlimit: 10;"/>
    <path d="m101.5,199.5s1,3,25,6" style="fill: none; stroke: #888d91; stroke-miterlimit: 10;"/>
    <path d="m101.5,209.5s1,2,25,5" style="fill: none; stroke: #888d91; stroke-miterlimit: 10;"/>
    <path d="m102.5,217.5s0,3,24,6" style="fill: none; stroke: #888d91; stroke-miterlimit: 10;"/>
    <polygon points="39.5 38.5 42.5 37.5 42.5 41.78 39.5 43.35 39.5 38.5" style="fill: none; stroke: #888d91; stroke-miterlimit: 10;"/>
    <polygon points="43.5 36.5 47.08 35.52 47.08 39.43 43.5 41.13 43.5 36.5" style="fill: none; stroke: #888d91; stroke-miterlimit: 10;"/>
    <polygon points="48.5 34.5 52.5 33.5 52.5 38.33 48.5 39.17 48.5 34.5" style="fill: none; stroke: #888d91; stroke-miterlimit: 10;"/>
    <rect x="54.5" y="32.5" width="4.41" height="5" style="fill: none; stroke: #888d91; stroke-miterlimit: 10;"/>
    <polygon points="60.48 32.5 65.26 32.5 65.26 36.96 60.48 37.5 60.48 32.5" style="fill: none; stroke: #888d91; stroke-miterlimit: 10;"/>
    <polygon points="68.5 31.5 74.57 31.5 74.57 36.34 68.5 36.83 68.5 31.5" style="fill: none; stroke: #888d91; stroke-miterlimit: 10;"/>
    <rect x="77.69" y="31.5" width="3.79" height="4.02" style="fill: none; stroke: #888d91; stroke-miterlimit: 10;"/>
    <polygon points="84.28 31.5 89.04 31.5 89.04 35.52 84.05 35.52 84.28 31.5" style="fill: none; stroke: #888d91; stroke-miterlimit: 10;"/>
    <polygon points="91.91 32.5 95.7 32.5 95.7 36.83 91.91 36.34 91.91 32.5" style="fill: none; stroke: #888d91; stroke-miterlimit: 10;"/>
    <polygon points="99.45 34.16 103.39 35 102.35 39.17 99.45 38.33 99.45 34.16" style="fill: none; stroke: #888d91; stroke-miterlimit: 10;"/>
  </g>
  <g id="Border">
    <g id="line_group">
      <path d="m72.5,224.5c-34.46-6-63.13,0-63.13,0V62.33s37.13.17,60.13-20.83l3,183h29.85l-3.72-183s-16.37-3-29.13,0" style="fill: none; stroke: #4c5055; stroke-miterlimit: 10;"/>
      <path d="m102.35,224.5c19.85-2,24.15,0,24.15,0V64.5s-24.14-2.47-27.57-8.23c0,0,1.57-1.77,1.57-5.77s5-4.22,5-4.22v-14.78c-44-15-67.5,4.54-67.5,4.54v10.96s.5,3.5,1.87,4.7,2.76,0,2.76,0v4.89" style="fill: none; stroke: #4c5055; stroke-miterlimit: 10;"/>
      <path d="m69.09,25.84v-14.77s1.09-8.43,2.25,0v14.38" style="fill: none; stroke: #4c5055; stroke-miterlimit: 10;"/>
    </g>
  </g>
  <g id="Detection_limits">
    <path id="exterior" d="m.5,62.5v172.72h8.87s37.13-6.28,63.13,0h29.85s17.15-5.28,24.15,0h9.7V54.11h-8.41s-9.28.39-14.28-4.61v-25s-19.09-6.85-34.04-7.92l.04-16.08h-18.63l-.39,16.08s-11.28.6-25.63,9.26h-3.13v24.66s-5.48,4.78-22.35-.11l-8.87.39v11.72Z" style="fill: none; stroke: red; stroke-miterlimit: 10;"/>
    <path id="interior" d="m16.5,214.5s18.67-7,55.84,0h29.81s12.79-4,18.07,0V71.13s-7.44.22-21.08-4.71h-3.96s-3.33-19.82.5-25.37h4.46l-.63-6.55s-42-9-54,4v8s6-1,5,5,3,8-3,10-31,7.02-31,7.02v145.98Z" style="fill: none; stroke: blue; stroke-miterlimit: 10;"/>
  </g>
</svg>