<?xml version="1.0" encoding="UTF-8"?>
<svg id="Calque_2" data-name="Calque 2" xmlns="http://www.w3.org/2000/svg" viewBox="0 0 238 238">
  <defs>
    <style>
      .cls-1 {
        fill: none;
        stroke: blue;
        stroke-miterlimit: 10;
      }

      .cls-2 {
        fill: #e20909;
      }
    </style>
  </defs>
  <g id="Border_wheel">
    <g id="wheel_group">
      <path class="cls-2" d="m91.5,9.5l17,18h20.26l16.74-18s-5-4-27-4c-20,0-27,4-27,4Z"/>
      <path class="cls-2" d="m22.13,61.02l24.75.71,14.32-14.32-.89-24.57s-6.36.71-21.92,16.26c-14.14,14.14-16.26,21.92-16.26,21.92Z"/>
      <path class="cls-2" d="m9.5,146.5l18-17v-20.26s-18-16.74-18-16.74c0,0-4,5-4,27,0,20,4,27,4,27Z"/>
      <path class="cls-2" d="m61.02,215.87l.71-24.75-14.32-14.32-24.57.89s.71,6.36,16.26,21.92c14.14,14.14,21.92,16.26,21.92,16.26Z"/>
      <path class="cls-2" d="m146.5,228.5l-17-18h-20.26s-16.74,18-16.74,18c0,0,5,4,27,4,20,0,27-4,27-4Z"/>
      <path class="cls-2" d="m215.87,176.98l-24.75-.71-14.32,14.32.89,24.57s6.36-.71,21.92-16.26c14.14-14.14,16.26-21.92,16.26-21.92Z"/>
      <path class="cls-2" d="m228.5,91.5l-18,17v20.26s18,16.74,18,16.74c0,0,4-5,4-27,0-20-4-27-4-27Z"/>
      <path class="cls-2" d="m176.98,22.13l-.71,24.75,14.32,14.32,24.57-.89s-.71-6.36-16.26-21.92c-14.14-14.14-21.92-16.26-21.92-16.26Z"/>
      <path class="cls-2" d="m118.5,27.5c-50.81,0-92,41.19-92,92s41.19,92,92,92,92-41.19,92-92S169.31,27.5,118.5,27.5Zm11,24.82c28.87,4.51,51.66,27.32,56.17,56.18h-41.17v-15h-15v-41.18Zm-22,.18v41h-15v15h-40.17c4.46-28.53,26.78-51.13,55.17-56Zm0,133.01c-28.06-4.82-50.19-26.95-55.01-55h40.01v15h15v40Zm-2.5-52.5v-27h27v27h-27Zm24.5,52.67v-40.17h15v-15h41c-4.88,28.39-27.48,50.71-56,55.17Z"/>
    </g>
  </g>
  <g id="Detection_limits_wheel">
    <g>
      <path class="cls-1" d="m106.34,32.5l-22.84-24.19,5.52-3.15c.83-.48,8.75-4.66,29.48-4.66,22.04,0,28.63,3.9,30.12,5.1l4.21,3.37-21.9,23.54h-24.59Z"/>
      <path class="cls-1" d="m15.63,65.83l1.67-6.13c.25-.93,2.89-9.48,17.55-24.14,15.58-15.59,23-17.49,24.9-17.7l5.35-.6,1.16,32.13-17.39,17.39-33.26-.95Z"/>
      <path class="cls-1" d="m5.16,148.98c-.48-.83-4.66-8.75-4.66-29.48,0-22.04,3.9-28.63,5.1-30.12l3.37-4.21,23.54,21.9v24.59l-24.19,22.84-3.15-5.52Z"/>
      <path class="cls-1" d="m59.7,220.7c-.93-.25-9.48-2.89-24.14-17.55-15.58-15.59-17.49-23-17.7-24.9l-.6-5.35,32.13-1.16,17.39,17.39-.95,33.26-6.13-1.67Z"/>
      <path class="cls-1" d="m119.5,237.5c-22.04,0-28.63-3.9-30.12-5.1l-4.21-3.37,21.9-23.54h24.59l22.84,24.19-5.52,3.15c-.83.48-8.75,4.66-29.48,4.66Z"/>
      <path class="cls-1" d="m171.73,188.6l17.39-17.39,33.26.95-1.67,6.13c-.25.93-2.89,9.48-17.55,24.14-15.59,15.58-23,17.49-24.9,17.7l-5.35.6-1.16-32.13Z"/>
      <path class="cls-1" d="m205.5,130.93v-24.59l24.19-22.84,3.15,5.52c.48.83,4.66,8.75,4.66,29.48,0,22.04-3.9,28.63-5.1,30.12l-3.37,4.21-23.54-21.9Z"/>
      <path class="cls-1" d="m171.22,48.89l.95-33.26,6.13,1.67c.93.25,9.48,2.89,24.14,17.55,15.58,15.59,17.49,23,17.7,24.9l.6,5.35-32.13,1.16-17.39-17.39Z"/>
      <path class="cls-1" d="m118.5,216.5c-53.49,0-97-43.51-97-97S65.01,22.5,118.5,22.5s97,43.51,97,97-43.51,97-97,97Zm16-36.95c21.77-5.54,38.89-22.37,44.78-44.05h-29.78v15h-15v29.05Zm-75.79-44.05c5.8,21.26,22.52,37.98,43.79,43.78v-28.78h-15v-15h-28.79Zm68.29-7.5v-17h-17v17h17Zm52.55-24.5c-5.62-22.2-22.86-39.45-45.05-45.06v30.06h15v15h30.05Zm-92.05,0v-15h15v-29.78c-21.67,5.89-38.51,23.01-44.05,44.78h29.05Z"/>
    </g>
  </g>
</svg>