<?xml version="1.0" encoding="UTF-8"?>
<svg id="Calque_2" data-name="Calque 2" xmlns="http://www.w3.org/2000/svg" viewBox="0 0 248 248">
  <defs>
    <style>
      .cls-1 {
        fill: none;
        stroke: blue;
        stroke-miterlimit: 10;
      }

      .cls-2 {
        fill: #e20909;
      }
    </style>
  </defs>
  <g id="Border_wheel">
    <g id="wheel_group">
      <path class="cls-2" d="m96.5,14.5l17,18h20.26l16.74-18s-5-4-27-4c-20,0-27,4-27,4Z"/>
      <path class="cls-2" d="m27.13,66.02l24.75.71,14.32-14.32-.89-24.57s-6.36.71-21.92,16.26c-14.14,14.14-16.26,21.92-16.26,21.92Z"/>
      <path class="cls-2" d="m14.5,151.5l18-17v-20.26s-18-16.74-18-16.74c0,0-4,5-4,27,0,20,4,27,4,27Z"/>
      <path class="cls-2" d="m66.02,220.87l.71-24.75-14.32-14.32-24.57.89s.71,6.36,16.26,21.92c14.14,14.14,21.92,16.26,21.92,16.26Z"/>
      <path class="cls-2" d="m151.5,233.5l-17-18h-20.26s-16.74,18-16.74,18c0,0,5,4,27,4,20,0,27-4,27-4Z"/>
      <path class="cls-2" d="m220.87,181.98l-24.75-.71-14.32,14.32.89,24.57s6.36-.71,21.92-16.26c14.14-14.14,16.26-21.92,16.26-21.92Z"/>
      <path class="cls-2" d="m233.5,96.5l-18,17v20.26s18,16.74,18,16.74c0,0,4-5,4-27,0-20-4-27-4-27Z"/>
      <path class="cls-2" d="m181.98,27.13l-.71,24.75,14.32,14.32,24.57-.89s-.71-6.36-16.26-21.92c-14.14-14.14-21.92-16.26-21.92-16.26Z"/>
      <path class="cls-2" d="m123.5,32.5c-50.81,0-92,41.19-92,92s41.19,92,92,92,92-41.19,92-92-41.19-92-92-92Zm11,24.82c28.87,4.51,51.66,27.32,56.17,56.18h-41.17v-15h-15v-41.18Zm-22,.18v41h-15v15h-40.17c4.46-28.53,26.78-51.13,55.17-56Zm0,133.01c-28.06-4.82-50.19-26.95-55.01-55h40.01v15h15v40Zm-2.5-52.5v-27h27v27h-27Zm24.5,52.67v-40.17h15v-15h41c-4.88,28.39-27.48,50.71-56,55.17Z"/>
    </g>
  </g>
  <g id="Detection_limits_wheel">
    <g id="wheel_detect_limite-grp">
      <path class="cls-1" d="m109.19,42.5l-28.69-30.38,11.04-6.31c1.55-.89,10.4-5.32,31.96-5.32s30.36,3.88,33.25,6.19l8.41,6.73-27.05,29.08h-28.92Z"/>
      <path class="cls-1" d="m14.13,75.65l3.35-12.27c.47-1.73,3.59-11.11,18.84-26.36,15.69-15.69,24.21-18.72,27.89-19.13l10.71-1.19,1.43,39.69-20.45,20.45-41.77-1.19Z"/>
      <path class="cls-1" d="m5.82,156.46c-.89-1.55-5.32-10.4-5.32-31.96s3.88-30.36,6.19-33.25l6.73-8.41,29.08,27.05v28.92l-30.38,28.69-6.31-11.04Z"/>
      <path class="cls-1" d="m63.39,230.52c-1.73-.47-11.11-3.59-26.36-18.84-15.69-15.69-18.72-24.21-19.13-27.89l-1.19-10.71,39.69-1.43,20.45,20.45-1.19,41.77-12.26-3.35Z"/>
      <path class="cls-1" d="m124.5,247.5c-22.19,0-30.36-3.88-33.25-6.19l-8.41-6.73,27.05-29.08h28.92l28.69,30.38-11.04,6.31c-1.55.89-10.4,5.32-31.96,5.32Z"/>
      <path class="cls-1" d="m171.65,191.61l20.45-20.45,41.77,1.19-3.35,12.26c-.47,1.73-3.59,11.11-18.84,26.36-15.69,15.69-24.21,18.72-27.89,19.13l-10.71,1.19-1.43-39.69Z"/>
      <path class="cls-1" d="m205.5,138.11v-28.92l30.38-28.69,6.31,11.04c.89,1.55,5.32,10.4,5.32,31.96s-3.88,30.36-6.19,33.25l-6.73,8.41-29.08-27.05Z"/>
      <path class="cls-1" d="m171.16,55.9l1.19-41.76,12.26,3.34c1.73.47,11.11,3.59,26.36,18.84,15.69,15.69,18.72,24.21,19.13,27.89l1.19,10.71-39.69,1.43-20.45-20.45Z"/>
      <path class="cls-1" d="m123.5,226.5c-56.24,0-102-45.76-102-102S67.26,22.5,123.5,22.5s102,45.76,102,102-45.76,102-102,102Zm21-48.77c14.96-5.68,26.88-17.39,32.84-32.23h-17.84v15h-15v17.23Zm-73.84-32.23c5.83,14.47,17.37,26,31.84,31.83v-16.83h-15v-15h-16.84Zm56.34-17.5v-7h-7v7h7Zm50.75-24.5c-5.8-15.35-17.9-27.46-33.25-33.26v18.26h15v15h18.25Zm-90.25,0v-15h15v-17.84c-14.85,5.96-26.55,17.88-32.23,32.84h17.23Z"/>
    </g>
  </g>
</svg>